<?xml version="1.0" encoding="utf-8" standalone="no"?>
<!DOCTYPE svg PUBLIC "-//W3C//DTD SVG 1.1//EN"
  "http://www.w3.org/Graphics/SVG/1.1/DTD/svg11.dtd">
<svg xmlns:xlink="http://www.w3.org/1999/xlink" width="720pt" height="576pt" viewBox="0 0 720 576" xmlns="http://www.w3.org/2000/svg" version="1.1">
 <metadata>
  <rdf:RDF xmlns:dc="http://purl.org/dc/elements/1.1/" xmlns:cc="http://creativecommons.org/ns#" xmlns:rdf="http://www.w3.org/1999/02/22-rdf-syntax-ns#">
   <cc:Work>
    <dc:type rdf:resource="http://purl.org/dc/dcmitype/StillImage"/>
    <dc:date>2023-06-01T18:23:38.029089</dc:date>
    <dc:format>image/svg+xml</dc:format>
    <dc:creator>
     <cc:Agent>
      <dc:title>Matplotlib v3.7.1, https://matplotlib.org/</dc:title>
     </cc:Agent>
    </dc:creator>
   </cc:Work>
  </rdf:RDF>
 </metadata>
 <defs>
  <style type="text/css">*{stroke-linejoin: round; stroke-linecap: butt}</style>
 </defs>
 <g id="figure_1">
  <g id="patch_1">
   <path d="M 0 576 
L 720 576 
L 720 0 
L 0 0 
z
" style="fill: #ffffff"/>
  </g>
  <g id="axes_1">
   <g id="patch_2">
    <path d="M 90 270.72 
L 343.636364 270.72 
L 343.636364 69.12 
L 90 69.12 
z
" style="fill: #ffffff"/>
   </g>
   <g id="matplotlib.axis_1">
    <g id="xtick_1">
     <g id="line2d_1">
      <defs>
       <path id="m25cf6c212d" d="M 0 0 
L 0 3.5 
" style="stroke: #000000; stroke-width: 0.8"/>
      </defs>
      <g>
       <use xlink:href="#m25cf6c212d" x="90" y="270.72" style="stroke: #000000; stroke-width: 0.8"/>
      </g>
     </g>
     <g id="text_1">
      <!-- 0 -->
      <g transform="translate(86.81875 285.318437) scale(0.1 -0.1)">
       <defs>
        <path id="DejaVuSans-30" d="M 2034 4250 
Q 1547 4250 1301 3770 
Q 1056 3291 1056 2328 
Q 1056 1369 1301 889 
Q 1547 409 2034 409 
Q 2525 409 2770 889 
Q 3016 1369 3016 2328 
Q 3016 3291 2770 3770 
Q 2525 4250 2034 4250 
z
M 2034 4750 
Q 2819 4750 3233 4129 
Q 3647 3509 3647 2328 
Q 3647 1150 3233 529 
Q 2819 -91 2034 -91 
Q 1250 -91 836 529 
Q 422 1150 422 2328 
Q 422 3509 836 4129 
Q 1250 4750 2034 4750 
z
" transform="scale(0.015625)"/>
       </defs>
       <use xlink:href="#DejaVuSans-30"/>
      </g>
     </g>
    </g>
    <g id="xtick_2">
     <g id="line2d_2">
      <g>
       <use xlink:href="#m25cf6c212d" x="125.723431" y="270.72" style="stroke: #000000; stroke-width: 0.8"/>
      </g>
     </g>
     <g id="text_2">
      <!-- 10 -->
      <g transform="translate(119.360931 285.318437) scale(0.1 -0.1)">
       <defs>
        <path id="DejaVuSans-31" d="M 794 531 
L 1825 531 
L 1825 4091 
L 703 3866 
L 703 4441 
L 1819 4666 
L 2450 4666 
L 2450 531 
L 3481 531 
L 3481 0 
L 794 0 
L 794 531 
z
" transform="scale(0.015625)"/>
       </defs>
       <use xlink:href="#DejaVuSans-31"/>
       <use xlink:href="#DejaVuSans-30" x="63.623047"/>
      </g>
     </g>
    </g>
    <g id="xtick_3">
     <g id="line2d_3">
      <g>
       <use xlink:href="#m25cf6c212d" x="161.446863" y="270.72" style="stroke: #000000; stroke-width: 0.8"/>
      </g>
     </g>
     <g id="text_3">
      <!-- 20 -->
      <g transform="translate(155.084363 285.318437) scale(0.1 -0.1)">
       <defs>
        <path id="DejaVuSans-32" d="M 1228 531 
L 3431 531 
L 3431 0 
L 469 0 
L 469 531 
Q 828 903 1448 1529 
Q 2069 2156 2228 2338 
Q 2531 2678 2651 2914 
Q 2772 3150 2772 3378 
Q 2772 3750 2511 3984 
Q 2250 4219 1831 4219 
Q 1534 4219 1204 4116 
Q 875 4013 500 3803 
L 500 4441 
Q 881 4594 1212 4672 
Q 1544 4750 1819 4750 
Q 2544 4750 2975 4387 
Q 3406 4025 3406 3419 
Q 3406 3131 3298 2873 
Q 3191 2616 2906 2266 
Q 2828 2175 2409 1742 
Q 1991 1309 1228 531 
z
" transform="scale(0.015625)"/>
       </defs>
       <use xlink:href="#DejaVuSans-32"/>
       <use xlink:href="#DejaVuSans-30" x="63.623047"/>
      </g>
     </g>
    </g>
    <g id="xtick_4">
     <g id="line2d_4">
      <g>
       <use xlink:href="#m25cf6c212d" x="197.170294" y="270.72" style="stroke: #000000; stroke-width: 0.8"/>
      </g>
     </g>
     <g id="text_4">
      <!-- 30 -->
      <g transform="translate(190.807794 285.318437) scale(0.1 -0.1)">
       <defs>
        <path id="DejaVuSans-33" d="M 2597 2516 
Q 3050 2419 3304 2112 
Q 3559 1806 3559 1356 
Q 3559 666 3084 287 
Q 2609 -91 1734 -91 
Q 1441 -91 1130 -33 
Q 819 25 488 141 
L 488 750 
Q 750 597 1062 519 
Q 1375 441 1716 441 
Q 2309 441 2620 675 
Q 2931 909 2931 1356 
Q 2931 1769 2642 2001 
Q 2353 2234 1838 2234 
L 1294 2234 
L 1294 2753 
L 1863 2753 
Q 2328 2753 2575 2939 
Q 2822 3125 2822 3475 
Q 2822 3834 2567 4026 
Q 2313 4219 1838 4219 
Q 1578 4219 1281 4162 
Q 984 4106 628 3988 
L 628 4550 
Q 988 4650 1302 4700 
Q 1616 4750 1894 4750 
Q 2613 4750 3031 4423 
Q 3450 4097 3450 3541 
Q 3450 3153 3228 2886 
Q 3006 2619 2597 2516 
z
" transform="scale(0.015625)"/>
       </defs>
       <use xlink:href="#DejaVuSans-33"/>
       <use xlink:href="#DejaVuSans-30" x="63.623047"/>
      </g>
     </g>
    </g>
    <g id="xtick_5">
     <g id="line2d_5">
      <g>
       <use xlink:href="#m25cf6c212d" x="232.893726" y="270.72" style="stroke: #000000; stroke-width: 0.8"/>
      </g>
     </g>
     <g id="text_5">
      <!-- 40 -->
      <g transform="translate(226.531226 285.318437) scale(0.1 -0.1)">
       <defs>
        <path id="DejaVuSans-34" d="M 2419 4116 
L 825 1625 
L 2419 1625 
L 2419 4116 
z
M 2253 4666 
L 3047 4666 
L 3047 1625 
L 3713 1625 
L 3713 1100 
L 3047 1100 
L 3047 0 
L 2419 0 
L 2419 1100 
L 313 1100 
L 313 1709 
L 2253 4666 
z
" transform="scale(0.015625)"/>
       </defs>
       <use xlink:href="#DejaVuSans-34"/>
       <use xlink:href="#DejaVuSans-30" x="63.623047"/>
      </g>
     </g>
    </g>
    <g id="xtick_6">
     <g id="line2d_6">
      <g>
       <use xlink:href="#m25cf6c212d" x="268.617157" y="270.72" style="stroke: #000000; stroke-width: 0.8"/>
      </g>
     </g>
     <g id="text_6">
      <!-- 50 -->
      <g transform="translate(262.254657 285.318437) scale(0.1 -0.1)">
       <defs>
        <path id="DejaVuSans-35" d="M 691 4666 
L 3169 4666 
L 3169 4134 
L 1269 4134 
L 1269 2991 
Q 1406 3038 1543 3061 
Q 1681 3084 1819 3084 
Q 2600 3084 3056 2656 
Q 3513 2228 3513 1497 
Q 3513 744 3044 326 
Q 2575 -91 1722 -91 
Q 1428 -91 1123 -41 
Q 819 9 494 109 
L 494 744 
Q 775 591 1075 516 
Q 1375 441 1709 441 
Q 2250 441 2565 725 
Q 2881 1009 2881 1497 
Q 2881 1984 2565 2268 
Q 2250 2553 1709 2553 
Q 1456 2553 1204 2497 
Q 953 2441 691 2322 
L 691 4666 
z
" transform="scale(0.015625)"/>
       </defs>
       <use xlink:href="#DejaVuSans-35"/>
       <use xlink:href="#DejaVuSans-30" x="63.623047"/>
      </g>
     </g>
    </g>
    <g id="xtick_7">
     <g id="line2d_7">
      <g>
       <use xlink:href="#m25cf6c212d" x="304.340589" y="270.72" style="stroke: #000000; stroke-width: 0.8"/>
      </g>
     </g>
     <g id="text_7">
      <!-- 60 -->
      <g transform="translate(297.978089 285.318437) scale(0.1 -0.1)">
       <defs>
        <path id="DejaVuSans-36" d="M 2113 2584 
Q 1688 2584 1439 2293 
Q 1191 2003 1191 1497 
Q 1191 994 1439 701 
Q 1688 409 2113 409 
Q 2538 409 2786 701 
Q 3034 994 3034 1497 
Q 3034 2003 2786 2293 
Q 2538 2584 2113 2584 
z
M 3366 4563 
L 3366 3988 
Q 3128 4100 2886 4159 
Q 2644 4219 2406 4219 
Q 1781 4219 1451 3797 
Q 1122 3375 1075 2522 
Q 1259 2794 1537 2939 
Q 1816 3084 2150 3084 
Q 2853 3084 3261 2657 
Q 3669 2231 3669 1497 
Q 3669 778 3244 343 
Q 2819 -91 2113 -91 
Q 1303 -91 875 529 
Q 447 1150 447 2328 
Q 447 3434 972 4092 
Q 1497 4750 2381 4750 
Q 2619 4750 2861 4703 
Q 3103 4656 3366 4563 
z
" transform="scale(0.015625)"/>
       </defs>
       <use xlink:href="#DejaVuSans-36"/>
       <use xlink:href="#DejaVuSans-30" x="63.623047"/>
      </g>
     </g>
    </g>
    <g id="xtick_8">
     <g id="line2d_8">
      <g>
       <use xlink:href="#m25cf6c212d" x="340.06402" y="270.72" style="stroke: #000000; stroke-width: 0.8"/>
      </g>
     </g>
     <g id="text_8">
      <!-- 70 -->
      <g transform="translate(333.70152 285.318437) scale(0.1 -0.1)">
       <defs>
        <path id="DejaVuSans-37" d="M 525 4666 
L 3525 4666 
L 3525 4397 
L 1831 0 
L 1172 0 
L 2766 4134 
L 525 4134 
L 525 4666 
z
" transform="scale(0.015625)"/>
       </defs>
       <use xlink:href="#DejaVuSans-37"/>
       <use xlink:href="#DejaVuSans-30" x="63.623047"/>
      </g>
     </g>
    </g>
   </g>
   <g id="matplotlib.axis_2">
    <g id="ytick_1">
     <g id="line2d_9">
      <defs>
       <path id="md6d4e2d818" d="M 0 0 
L -3.5 0 
" style="stroke: #000000; stroke-width: 0.8"/>
      </defs>
      <g>
       <use xlink:href="#md6d4e2d818" x="90" y="254.493794" style="stroke: #000000; stroke-width: 0.8"/>
      </g>
     </g>
     <g id="text_9">
      <!-- −1.5 -->
      <g transform="translate(58.717187 258.293013) scale(0.1 -0.1)">
       <defs>
        <path id="DejaVuSans-2212" d="M 678 2272 
L 4684 2272 
L 4684 1741 
L 678 1741 
L 678 2272 
z
" transform="scale(0.015625)"/>
        <path id="DejaVuSans-2e" d="M 684 794 
L 1344 794 
L 1344 0 
L 684 0 
L 684 794 
z
" transform="scale(0.015625)"/>
       </defs>
       <use xlink:href="#DejaVuSans-2212"/>
       <use xlink:href="#DejaVuSans-31" x="83.789062"/>
       <use xlink:href="#DejaVuSans-2e" x="147.412109"/>
       <use xlink:href="#DejaVuSans-35" x="179.199219"/>
      </g>
     </g>
    </g>
    <g id="ytick_2">
     <g id="line2d_10">
      <g>
       <use xlink:href="#md6d4e2d818" x="90" y="230.989754" style="stroke: #000000; stroke-width: 0.8"/>
      </g>
     </g>
     <g id="text_10">
      <!-- −1.0 -->
      <g transform="translate(58.717187 234.788972) scale(0.1 -0.1)">
       <use xlink:href="#DejaVuSans-2212"/>
       <use xlink:href="#DejaVuSans-31" x="83.789062"/>
       <use xlink:href="#DejaVuSans-2e" x="147.412109"/>
       <use xlink:href="#DejaVuSans-30" x="179.199219"/>
      </g>
     </g>
    </g>
    <g id="ytick_3">
     <g id="line2d_11">
      <g>
       <use xlink:href="#md6d4e2d818" x="90" y="207.485713" style="stroke: #000000; stroke-width: 0.8"/>
      </g>
     </g>
     <g id="text_11">
      <!-- −0.5 -->
      <g transform="translate(58.717187 211.284932) scale(0.1 -0.1)">
       <use xlink:href="#DejaVuSans-2212"/>
       <use xlink:href="#DejaVuSans-30" x="83.789062"/>
       <use xlink:href="#DejaVuSans-2e" x="147.412109"/>
       <use xlink:href="#DejaVuSans-35" x="179.199219"/>
      </g>
     </g>
    </g>
    <g id="ytick_4">
     <g id="line2d_12">
      <g>
       <use xlink:href="#md6d4e2d818" x="90" y="183.981673" style="stroke: #000000; stroke-width: 0.8"/>
      </g>
     </g>
     <g id="text_12">
      <!-- 0.0 -->
      <g transform="translate(67.096875 187.780892) scale(0.1 -0.1)">
       <use xlink:href="#DejaVuSans-30"/>
       <use xlink:href="#DejaVuSans-2e" x="63.623047"/>
       <use xlink:href="#DejaVuSans-30" x="95.410156"/>
      </g>
     </g>
    </g>
    <g id="ytick_5">
     <g id="line2d_13">
      <g>
       <use xlink:href="#md6d4e2d818" x="90" y="160.477633" style="stroke: #000000; stroke-width: 0.8"/>
      </g>
     </g>
     <g id="text_13">
      <!-- 0.5 -->
      <g transform="translate(67.096875 164.276851) scale(0.1 -0.1)">
       <use xlink:href="#DejaVuSans-30"/>
       <use xlink:href="#DejaVuSans-2e" x="63.623047"/>
       <use xlink:href="#DejaVuSans-35" x="95.410156"/>
      </g>
     </g>
    </g>
    <g id="ytick_6">
     <g id="line2d_14">
      <g>
       <use xlink:href="#md6d4e2d818" x="90" y="136.973592" style="stroke: #000000; stroke-width: 0.8"/>
      </g>
     </g>
     <g id="text_14">
      <!-- 1.0 -->
      <g transform="translate(67.096875 140.772811) scale(0.1 -0.1)">
       <use xlink:href="#DejaVuSans-31"/>
       <use xlink:href="#DejaVuSans-2e" x="63.623047"/>
       <use xlink:href="#DejaVuSans-30" x="95.410156"/>
      </g>
     </g>
    </g>
    <g id="ytick_7">
     <g id="line2d_15">
      <g>
       <use xlink:href="#md6d4e2d818" x="90" y="113.469552" style="stroke: #000000; stroke-width: 0.8"/>
      </g>
     </g>
     <g id="text_15">
      <!-- 1.5 -->
      <g transform="translate(67.096875 117.268771) scale(0.1 -0.1)">
       <use xlink:href="#DejaVuSans-31"/>
       <use xlink:href="#DejaVuSans-2e" x="63.623047"/>
       <use xlink:href="#DejaVuSans-35" x="95.410156"/>
      </g>
     </g>
    </g>
    <g id="ytick_8">
     <g id="line2d_16">
      <g>
       <use xlink:href="#md6d4e2d818" x="90" y="89.965512" style="stroke: #000000; stroke-width: 0.8"/>
      </g>
     </g>
     <g id="text_16">
      <!-- 2.0 -->
      <g transform="translate(67.096875 93.76473) scale(0.1 -0.1)">
       <use xlink:href="#DejaVuSans-32"/>
       <use xlink:href="#DejaVuSans-2e" x="63.623047"/>
       <use xlink:href="#DejaVuSans-30" x="95.410156"/>
      </g>
     </g>
    </g>
   </g>
   <g id="line2d_17">
    <path d="M 90 212.232664 
L 93.572343 171.301029 
L 97.144686 139.565941 
L 100.717029 155.443324 
L 104.289373 177.435991 
L 107.861716 214.847446 
L 111.434059 199.292965 
L 115.006402 178.385737 
L 118.578745 245.642951 
L 122.151088 193.633317 
L 125.723431 176.082943 
L 129.295775 136.298168 
L 132.868118 78.283636 
L 136.440461 162.984381 
L 140.012804 176.014866 
L 143.585147 227.527609 
L 147.15749 213.862157 
L 150.729834 186.031075 
L 154.302177 143.131318 
L 157.87452 177.397469 
L 161.446863 203.669798 
L 165.019206 107.606479 
L 168.591549 219.536523 
L 172.163892 155.261919 
L 175.736236 214.76394 
L 179.308579 170.165879 
L 182.880922 194.167476 
L 186.453265 147.063229 
L 190.025608 203.178957 
L 193.597951 203.626415 
L 197.170294 179.62504 
L 200.742638 171.802564 
L 204.314981 94.818239 
L 207.887324 232.952366 
L 211.459667 233.892415 
L 215.03201 191.730107 
L 218.604353 213.913183 
L 222.176697 246.726016 
L 225.74904 174.337213 
L 229.321383 153.444703 
L 232.893726 148.272273 
L 236.466069 169.772703 
L 240.038412 153.178054 
L 243.610755 160.353141 
L 247.183099 184.810815 
L 250.755442 144.176901 
L 254.327785 226.730807 
L 257.900128 142.834438 
L 261.472471 128.416645 
L 265.044814 104.304987 
L 268.617157 240.183517 
L 272.189501 86.75088 
L 275.761844 231.968979 
L 279.334187 138.190505 
L 282.90653 92.327674 
L 286.478873 164.376735 
L 290.051216 182.922201 
L 293.62356 220.986577 
L 297.195903 79.722527 
L 300.768246 143.800452 
L 304.340589 227.230402 
L 307.912932 188.17104 
L 311.485275 195.50775 
L 315.057618 261.556364 
L 318.629962 186.188688 
L 322.202305 155.68777 
L 325.774648 194.911771 
L 329.346991 193.220477 
L 332.919334 194.917903 
L 336.491677 158.97895 
L 340.06402 107.058519 
L 343.636364 166.400842 
" clip-path="url(#pabca6eff49)" style="fill: none; stroke: #1f77b4; stroke-width: 1.5; stroke-linecap: square"/>
   </g>
   <g id="LineCollection_1">
    <path d="M 90 183.981673 
L 343.636364 183.981673 
" clip-path="url(#pabca6eff49)" style="fill: none; stroke: #1f77b4; stroke-opacity: 0.5; stroke-width: 1.5"/>
   </g>
   <g id="patch_3">
    <path d="M 90 270.72 
L 90 69.12 
" style="fill: none; stroke: #000000; stroke-width: 0.8; stroke-linejoin: miter; stroke-linecap: square"/>
   </g>
   <g id="patch_4">
    <path d="M 343.636364 270.72 
L 343.636364 69.12 
" style="fill: none; stroke: #000000; stroke-width: 0.8; stroke-linejoin: miter; stroke-linecap: square"/>
   </g>
   <g id="patch_5">
    <path d="M 90 270.72 
L 343.636364 270.72 
" style="fill: none; stroke: #000000; stroke-width: 0.8; stroke-linejoin: miter; stroke-linecap: square"/>
   </g>
   <g id="patch_6">
    <path d="M 90 69.12 
L 343.636364 69.12 
" style="fill: none; stroke: #000000; stroke-width: 0.8; stroke-linejoin: miter; stroke-linecap: square"/>
   </g>
   <g id="text_17">
    <!-- Standardized residual for "t" -->
    <g transform="translate(131.590057 63.12) scale(0.12 -0.12)">
     <defs>
      <path id="DejaVuSans-53" d="M 3425 4513 
L 3425 3897 
Q 3066 4069 2747 4153 
Q 2428 4238 2131 4238 
Q 1616 4238 1336 4038 
Q 1056 3838 1056 3469 
Q 1056 3159 1242 3001 
Q 1428 2844 1947 2747 
L 2328 2669 
Q 3034 2534 3370 2195 
Q 3706 1856 3706 1288 
Q 3706 609 3251 259 
Q 2797 -91 1919 -91 
Q 1588 -91 1214 -16 
Q 841 59 441 206 
L 441 856 
Q 825 641 1194 531 
Q 1563 422 1919 422 
Q 2459 422 2753 634 
Q 3047 847 3047 1241 
Q 3047 1584 2836 1778 
Q 2625 1972 2144 2069 
L 1759 2144 
Q 1053 2284 737 2584 
Q 422 2884 422 3419 
Q 422 4038 858 4394 
Q 1294 4750 2059 4750 
Q 2388 4750 2728 4690 
Q 3069 4631 3425 4513 
z
" transform="scale(0.015625)"/>
      <path id="DejaVuSans-74" d="M 1172 4494 
L 1172 3500 
L 2356 3500 
L 2356 3053 
L 1172 3053 
L 1172 1153 
Q 1172 725 1289 603 
Q 1406 481 1766 481 
L 2356 481 
L 2356 0 
L 1766 0 
Q 1100 0 847 248 
Q 594 497 594 1153 
L 594 3053 
L 172 3053 
L 172 3500 
L 594 3500 
L 594 4494 
L 1172 4494 
z
" transform="scale(0.015625)"/>
      <path id="DejaVuSans-61" d="M 2194 1759 
Q 1497 1759 1228 1600 
Q 959 1441 959 1056 
Q 959 750 1161 570 
Q 1363 391 1709 391 
Q 2188 391 2477 730 
Q 2766 1069 2766 1631 
L 2766 1759 
L 2194 1759 
z
M 3341 1997 
L 3341 0 
L 2766 0 
L 2766 531 
Q 2569 213 2275 61 
Q 1981 -91 1556 -91 
Q 1019 -91 701 211 
Q 384 513 384 1019 
Q 384 1609 779 1909 
Q 1175 2209 1959 2209 
L 2766 2209 
L 2766 2266 
Q 2766 2663 2505 2880 
Q 2244 3097 1772 3097 
Q 1472 3097 1187 3025 
Q 903 2953 641 2809 
L 641 3341 
Q 956 3463 1253 3523 
Q 1550 3584 1831 3584 
Q 2591 3584 2966 3190 
Q 3341 2797 3341 1997 
z
" transform="scale(0.015625)"/>
      <path id="DejaVuSans-6e" d="M 3513 2113 
L 3513 0 
L 2938 0 
L 2938 2094 
Q 2938 2591 2744 2837 
Q 2550 3084 2163 3084 
Q 1697 3084 1428 2787 
Q 1159 2491 1159 1978 
L 1159 0 
L 581 0 
L 581 3500 
L 1159 3500 
L 1159 2956 
Q 1366 3272 1645 3428 
Q 1925 3584 2291 3584 
Q 2894 3584 3203 3211 
Q 3513 2838 3513 2113 
z
" transform="scale(0.015625)"/>
      <path id="DejaVuSans-64" d="M 2906 2969 
L 2906 4863 
L 3481 4863 
L 3481 0 
L 2906 0 
L 2906 525 
Q 2725 213 2448 61 
Q 2172 -91 1784 -91 
Q 1150 -91 751 415 
Q 353 922 353 1747 
Q 353 2572 751 3078 
Q 1150 3584 1784 3584 
Q 2172 3584 2448 3432 
Q 2725 3281 2906 2969 
z
M 947 1747 
Q 947 1113 1208 752 
Q 1469 391 1925 391 
Q 2381 391 2643 752 
Q 2906 1113 2906 1747 
Q 2906 2381 2643 2742 
Q 2381 3103 1925 3103 
Q 1469 3103 1208 2742 
Q 947 2381 947 1747 
z
" transform="scale(0.015625)"/>
      <path id="DejaVuSans-72" d="M 2631 2963 
Q 2534 3019 2420 3045 
Q 2306 3072 2169 3072 
Q 1681 3072 1420 2755 
Q 1159 2438 1159 1844 
L 1159 0 
L 581 0 
L 581 3500 
L 1159 3500 
L 1159 2956 
Q 1341 3275 1631 3429 
Q 1922 3584 2338 3584 
Q 2397 3584 2469 3576 
Q 2541 3569 2628 3553 
L 2631 2963 
z
" transform="scale(0.015625)"/>
      <path id="DejaVuSans-69" d="M 603 3500 
L 1178 3500 
L 1178 0 
L 603 0 
L 603 3500 
z
M 603 4863 
L 1178 4863 
L 1178 4134 
L 603 4134 
L 603 4863 
z
" transform="scale(0.015625)"/>
      <path id="DejaVuSans-7a" d="M 353 3500 
L 3084 3500 
L 3084 2975 
L 922 459 
L 3084 459 
L 3084 0 
L 275 0 
L 275 525 
L 2438 3041 
L 353 3041 
L 353 3500 
z
" transform="scale(0.015625)"/>
      <path id="DejaVuSans-65" d="M 3597 1894 
L 3597 1613 
L 953 1613 
Q 991 1019 1311 708 
Q 1631 397 2203 397 
Q 2534 397 2845 478 
Q 3156 559 3463 722 
L 3463 178 
Q 3153 47 2828 -22 
Q 2503 -91 2169 -91 
Q 1331 -91 842 396 
Q 353 884 353 1716 
Q 353 2575 817 3079 
Q 1281 3584 2069 3584 
Q 2775 3584 3186 3129 
Q 3597 2675 3597 1894 
z
M 3022 2063 
Q 3016 2534 2758 2815 
Q 2500 3097 2075 3097 
Q 1594 3097 1305 2825 
Q 1016 2553 972 2059 
L 3022 2063 
z
" transform="scale(0.015625)"/>
      <path id="DejaVuSans-20" transform="scale(0.015625)"/>
      <path id="DejaVuSans-73" d="M 2834 3397 
L 2834 2853 
Q 2591 2978 2328 3040 
Q 2066 3103 1784 3103 
Q 1356 3103 1142 2972 
Q 928 2841 928 2578 
Q 928 2378 1081 2264 
Q 1234 2150 1697 2047 
L 1894 2003 
Q 2506 1872 2764 1633 
Q 3022 1394 3022 966 
Q 3022 478 2636 193 
Q 2250 -91 1575 -91 
Q 1294 -91 989 -36 
Q 684 19 347 128 
L 347 722 
Q 666 556 975 473 
Q 1284 391 1588 391 
Q 1994 391 2212 530 
Q 2431 669 2431 922 
Q 2431 1156 2273 1281 
Q 2116 1406 1581 1522 
L 1381 1569 
Q 847 1681 609 1914 
Q 372 2147 372 2553 
Q 372 3047 722 3315 
Q 1072 3584 1716 3584 
Q 2034 3584 2315 3537 
Q 2597 3491 2834 3397 
z
" transform="scale(0.015625)"/>
      <path id="DejaVuSans-75" d="M 544 1381 
L 544 3500 
L 1119 3500 
L 1119 1403 
Q 1119 906 1312 657 
Q 1506 409 1894 409 
Q 2359 409 2629 706 
Q 2900 1003 2900 1516 
L 2900 3500 
L 3475 3500 
L 3475 0 
L 2900 0 
L 2900 538 
Q 2691 219 2414 64 
Q 2138 -91 1772 -91 
Q 1169 -91 856 284 
Q 544 659 544 1381 
z
M 1991 3584 
L 1991 3584 
z
" transform="scale(0.015625)"/>
      <path id="DejaVuSans-6c" d="M 603 4863 
L 1178 4863 
L 1178 0 
L 603 0 
L 603 4863 
z
" transform="scale(0.015625)"/>
      <path id="DejaVuSans-66" d="M 2375 4863 
L 2375 4384 
L 1825 4384 
Q 1516 4384 1395 4259 
Q 1275 4134 1275 3809 
L 1275 3500 
L 2222 3500 
L 2222 3053 
L 1275 3053 
L 1275 0 
L 697 0 
L 697 3053 
L 147 3053 
L 147 3500 
L 697 3500 
L 697 3744 
Q 697 4328 969 4595 
Q 1241 4863 1831 4863 
L 2375 4863 
z
" transform="scale(0.015625)"/>
      <path id="DejaVuSans-6f" d="M 1959 3097 
Q 1497 3097 1228 2736 
Q 959 2375 959 1747 
Q 959 1119 1226 758 
Q 1494 397 1959 397 
Q 2419 397 2687 759 
Q 2956 1122 2956 1747 
Q 2956 2369 2687 2733 
Q 2419 3097 1959 3097 
z
M 1959 3584 
Q 2709 3584 3137 3096 
Q 3566 2609 3566 1747 
Q 3566 888 3137 398 
Q 2709 -91 1959 -91 
Q 1206 -91 779 398 
Q 353 888 353 1747 
Q 353 2609 779 3096 
Q 1206 3584 1959 3584 
z
" transform="scale(0.015625)"/>
      <path id="DejaVuSans-22" d="M 1147 4666 
L 1147 2931 
L 616 2931 
L 616 4666 
L 1147 4666 
z
M 2328 4666 
L 2328 2931 
L 1797 2931 
L 1797 4666 
L 2328 4666 
z
" transform="scale(0.015625)"/>
     </defs>
     <use xlink:href="#DejaVuSans-53"/>
     <use xlink:href="#DejaVuSans-74" x="63.476562"/>
     <use xlink:href="#DejaVuSans-61" x="102.685547"/>
     <use xlink:href="#DejaVuSans-6e" x="163.964844"/>
     <use xlink:href="#DejaVuSans-64" x="227.34375"/>
     <use xlink:href="#DejaVuSans-61" x="290.820312"/>
     <use xlink:href="#DejaVuSans-72" x="352.099609"/>
     <use xlink:href="#DejaVuSans-64" x="391.462891"/>
     <use xlink:href="#DejaVuSans-69" x="454.939453"/>
     <use xlink:href="#DejaVuSans-7a" x="482.722656"/>
     <use xlink:href="#DejaVuSans-65" x="535.212891"/>
     <use xlink:href="#DejaVuSans-64" x="596.736328"/>
     <use xlink:href="#DejaVuSans-20" x="660.212891"/>
     <use xlink:href="#DejaVuSans-72" x="692"/>
     <use xlink:href="#DejaVuSans-65" x="730.863281"/>
     <use xlink:href="#DejaVuSans-73" x="792.386719"/>
     <use xlink:href="#DejaVuSans-69" x="844.486328"/>
     <use xlink:href="#DejaVuSans-64" x="872.269531"/>
     <use xlink:href="#DejaVuSans-75" x="935.746094"/>
     <use xlink:href="#DejaVuSans-61" x="999.125"/>
     <use xlink:href="#DejaVuSans-6c" x="1060.404297"/>
     <use xlink:href="#DejaVuSans-20" x="1088.1875"/>
     <use xlink:href="#DejaVuSans-66" x="1119.974609"/>
     <use xlink:href="#DejaVuSans-6f" x="1155.179688"/>
     <use xlink:href="#DejaVuSans-72" x="1216.361328"/>
     <use xlink:href="#DejaVuSans-20" x="1257.474609"/>
     <use xlink:href="#DejaVuSans-22" x="1289.261719"/>
     <use xlink:href="#DejaVuSans-74" x="1335.257812"/>
     <use xlink:href="#DejaVuSans-22" x="1374.466797"/>
    </g>
   </g>
  </g>
  <g id="axes_2">
   <g id="patch_7">
    <path d="M 394.363636 270.72 
L 648 270.72 
L 648 69.12 
L 394.363636 69.12 
z
" style="fill: #ffffff"/>
   </g>
   <g id="patch_8">
    <path d="M 467.7939 270.72 
L 480.406969 270.72 
L 480.406969 232.32 
L 467.7939 232.32 
z
" clip-path="url(#pa71b8cab30)" style="fill: #1f77b4; stroke: #ffffff; stroke-linejoin: miter"/>
   </g>
   <g id="patch_9">
    <path d="M 480.406969 270.72 
L 493.020038 270.72 
L 493.020038 181.12 
L 480.406969 181.12 
z
" clip-path="url(#pa71b8cab30)" style="fill: #1f77b4; stroke: #ffffff; stroke-linejoin: miter"/>
   </g>
   <g id="patch_10">
    <path d="M 493.020038 270.72 
L 505.633107 270.72 
L 505.633107 181.12 
L 493.020038 181.12 
z
" clip-path="url(#pa71b8cab30)" style="fill: #1f77b4; stroke: #ffffff; stroke-linejoin: miter"/>
   </g>
   <g id="patch_11">
    <path d="M 505.633107 270.72 
L 518.246176 270.72 
L 518.246176 129.92 
L 505.633107 129.92 
z
" clip-path="url(#pa71b8cab30)" style="fill: #1f77b4; stroke: #ffffff; stroke-linejoin: miter"/>
   </g>
   <g id="patch_12">
    <path d="M 518.246176 270.72 
L 530.859246 270.72 
L 530.859246 78.72 
L 518.246176 78.72 
z
" clip-path="url(#pa71b8cab30)" style="fill: #1f77b4; stroke: #ffffff; stroke-linejoin: miter"/>
   </g>
   <g id="patch_13">
    <path d="M 530.859246 270.72 
L 543.472315 270.72 
L 543.472315 129.92 
L 530.859246 129.92 
z
" clip-path="url(#pa71b8cab30)" style="fill: #1f77b4; stroke: #ffffff; stroke-linejoin: miter"/>
   </g>
   <g id="patch_14">
    <path d="M 543.472315 270.72 
L 556.085384 270.72 
L 556.085384 155.52 
L 543.472315 155.52 
z
" clip-path="url(#pa71b8cab30)" style="fill: #1f77b4; stroke: #ffffff; stroke-linejoin: miter"/>
   </g>
   <g id="patch_15">
    <path d="M 556.085384 270.72 
L 568.698453 270.72 
L 568.698453 257.92 
L 556.085384 257.92 
z
" clip-path="url(#pa71b8cab30)" style="fill: #1f77b4; stroke: #ffffff; stroke-linejoin: miter"/>
   </g>
   <g id="patch_16">
    <path d="M 568.698453 270.72 
L 581.311523 270.72 
L 581.311523 232.32 
L 568.698453 232.32 
z
" clip-path="url(#pa71b8cab30)" style="fill: #1f77b4; stroke: #ffffff; stroke-linejoin: miter"/>
   </g>
   <g id="patch_17">
    <path d="M 581.311523 270.72 
L 593.924592 270.72 
L 593.924592 206.72 
L 581.311523 206.72 
z
" clip-path="url(#pa71b8cab30)" style="fill: #1f77b4; stroke: #ffffff; stroke-linejoin: miter"/>
   </g>
   <g id="matplotlib.axis_3">
    <g id="xtick_9">
     <g id="line2d_18">
      <g>
       <use xlink:href="#m25cf6c212d" x="424.127087" y="270.72" style="stroke: #000000; stroke-width: 0.8"/>
      </g>
     </g>
     <g id="text_18">
      <!-- −3 -->
      <g transform="translate(416.755993 285.318437) scale(0.1 -0.1)">
       <use xlink:href="#DejaVuSans-2212"/>
       <use xlink:href="#DejaVuSans-33" x="83.789062"/>
      </g>
     </g>
    </g>
    <g id="xtick_10">
     <g id="line2d_19">
      <g>
       <use xlink:href="#m25cf6c212d" x="456.478664" y="270.72" style="stroke: #000000; stroke-width: 0.8"/>
      </g>
     </g>
     <g id="text_19">
      <!-- −2 -->
      <g transform="translate(449.10757 285.318437) scale(0.1 -0.1)">
       <use xlink:href="#DejaVuSans-2212"/>
       <use xlink:href="#DejaVuSans-32" x="83.789062"/>
      </g>
     </g>
    </g>
    <g id="xtick_11">
     <g id="line2d_20">
      <g>
       <use xlink:href="#m25cf6c212d" x="488.830241" y="270.72" style="stroke: #000000; stroke-width: 0.8"/>
      </g>
     </g>
     <g id="text_20">
      <!-- −1 -->
      <g transform="translate(481.459147 285.318437) scale(0.1 -0.1)">
       <use xlink:href="#DejaVuSans-2212"/>
       <use xlink:href="#DejaVuSans-31" x="83.789062"/>
      </g>
     </g>
    </g>
    <g id="xtick_12">
     <g id="line2d_21">
      <g>
       <use xlink:href="#m25cf6c212d" x="521.181818" y="270.72" style="stroke: #000000; stroke-width: 0.8"/>
      </g>
     </g>
     <g id="text_21">
      <!-- 0 -->
      <g transform="translate(518.000568 285.318437) scale(0.1 -0.1)">
       <use xlink:href="#DejaVuSans-30"/>
      </g>
     </g>
    </g>
    <g id="xtick_13">
     <g id="line2d_22">
      <g>
       <use xlink:href="#m25cf6c212d" x="553.533395" y="270.72" style="stroke: #000000; stroke-width: 0.8"/>
      </g>
     </g>
     <g id="text_22">
      <!-- 1 -->
      <g transform="translate(550.352145 285.318437) scale(0.1 -0.1)">
       <use xlink:href="#DejaVuSans-31"/>
      </g>
     </g>
    </g>
    <g id="xtick_14">
     <g id="line2d_23">
      <g>
       <use xlink:href="#m25cf6c212d" x="585.884972" y="270.72" style="stroke: #000000; stroke-width: 0.8"/>
      </g>
     </g>
     <g id="text_23">
      <!-- 2 -->
      <g transform="translate(582.703722 285.318437) scale(0.1 -0.1)">
       <use xlink:href="#DejaVuSans-32"/>
      </g>
     </g>
    </g>
    <g id="xtick_15">
     <g id="line2d_24">
      <g>
       <use xlink:href="#m25cf6c212d" x="618.236549" y="270.72" style="stroke: #000000; stroke-width: 0.8"/>
      </g>
     </g>
     <g id="text_24">
      <!-- 3 -->
      <g transform="translate(615.055299 285.318437) scale(0.1 -0.1)">
       <use xlink:href="#DejaVuSans-33"/>
      </g>
     </g>
    </g>
   </g>
   <g id="matplotlib.axis_4">
    <g id="ytick_9">
     <g id="line2d_25">
      <g>
       <use xlink:href="#md6d4e2d818" x="394.363636" y="270.72" style="stroke: #000000; stroke-width: 0.8"/>
      </g>
     </g>
     <g id="text_25">
      <!-- 0.0 -->
      <g transform="translate(371.460511 274.519219) scale(0.1 -0.1)">
       <use xlink:href="#DejaVuSans-30"/>
       <use xlink:href="#DejaVuSans-2e" x="63.623047"/>
       <use xlink:href="#DejaVuSans-30" x="95.410156"/>
      </g>
     </g>
    </g>
    <g id="ytick_10">
     <g id="line2d_26">
      <g>
       <use xlink:href="#md6d4e2d818" x="394.363636" y="234.789125" style="stroke: #000000; stroke-width: 0.8"/>
      </g>
     </g>
     <g id="text_26">
      <!-- 0.1 -->
      <g transform="translate(371.460511 238.588344) scale(0.1 -0.1)">
       <use xlink:href="#DejaVuSans-30"/>
       <use xlink:href="#DejaVuSans-2e" x="63.623047"/>
       <use xlink:href="#DejaVuSans-31" x="95.410156"/>
      </g>
     </g>
    </g>
    <g id="ytick_11">
     <g id="line2d_27">
      <g>
       <use xlink:href="#md6d4e2d818" x="394.363636" y="198.858251" style="stroke: #000000; stroke-width: 0.8"/>
      </g>
     </g>
     <g id="text_27">
      <!-- 0.2 -->
      <g transform="translate(371.460511 202.657469) scale(0.1 -0.1)">
       <use xlink:href="#DejaVuSans-30"/>
       <use xlink:href="#DejaVuSans-2e" x="63.623047"/>
       <use xlink:href="#DejaVuSans-32" x="95.410156"/>
      </g>
     </g>
    </g>
    <g id="ytick_12">
     <g id="line2d_28">
      <g>
       <use xlink:href="#md6d4e2d818" x="394.363636" y="162.927376" style="stroke: #000000; stroke-width: 0.8"/>
      </g>
     </g>
     <g id="text_28">
      <!-- 0.3 -->
      <g transform="translate(371.460511 166.726595) scale(0.1 -0.1)">
       <use xlink:href="#DejaVuSans-30"/>
       <use xlink:href="#DejaVuSans-2e" x="63.623047"/>
       <use xlink:href="#DejaVuSans-33" x="95.410156"/>
      </g>
     </g>
    </g>
    <g id="ytick_13">
     <g id="line2d_29">
      <g>
       <use xlink:href="#md6d4e2d818" x="394.363636" y="126.996501" style="stroke: #000000; stroke-width: 0.8"/>
      </g>
     </g>
     <g id="text_29">
      <!-- 0.4 -->
      <g transform="translate(371.460511 130.79572) scale(0.1 -0.1)">
       <use xlink:href="#DejaVuSans-30"/>
       <use xlink:href="#DejaVuSans-2e" x="63.623047"/>
       <use xlink:href="#DejaVuSans-34" x="95.410156"/>
      </g>
     </g>
    </g>
    <g id="ytick_14">
     <g id="line2d_30">
      <g>
       <use xlink:href="#md6d4e2d818" x="394.363636" y="91.065627" style="stroke: #000000; stroke-width: 0.8"/>
      </g>
     </g>
     <g id="text_30">
      <!-- 0.5 -->
      <g transform="translate(371.460511 94.864845) scale(0.1 -0.1)">
       <use xlink:href="#DejaVuSans-30"/>
       <use xlink:href="#DejaVuSans-2e" x="63.623047"/>
       <use xlink:href="#DejaVuSans-35" x="95.410156"/>
      </g>
     </g>
    </g>
   </g>
   <g id="line2d_31">
    <path d="M 394.363636 270.72 
L 399.539889 270.719999 
L 404.716141 270.719989 
L 409.892393 270.719911 
L 415.068646 270.71941 
L 420.244898 270.716702 
L 425.42115 270.704398 
L 430.597403 270.657382 
L 435.773655 270.505631 
L 440.949907 270.089429 
L 446.12616 269.110479 
L 451.302412 267.110272 
L 456.478664 263.503391 
L 461.654917 257.669595 
L 466.831169 249.105198 
L 472.007421 237.648855 
L 477.183673 223.733476 
L 482.359926 208.455542 
L 487.536178 193.220139 
L 492.71243 179.038158 
L 497.888683 166.011585 
L 503.064935 153.575012 
L 508.241187 141.42061 
L 513.41744 130.290524 
L 518.593692 121.853522 
L 523.769944 117.767124 
L 528.946197 118.821801 
L 534.122449 124.915419 
L 539.298701 135.676664 
L 544.474954 150.806938 
L 549.651206 169.523384 
L 554.827458 189.691077 
L 560.003711 207.940665 
L 565.179963 221.197559 
L 570.356215 228.461461 
L 575.532468 231.2801 
L 580.70872 232.606568 
L 585.884972 235.086114 
L 591.061224 239.930508 
L 596.237477 246.763794 
L 601.413729 254.204291 
L 606.589981 260.75037 
L 611.766234 265.500506 
L 616.942486 268.368108 
L 622.118738 269.813374 
L 627.294991 270.422391 
L 632.471243 270.637102 
L 637.647495 270.700458 
L 642.823748 270.716109 
L 648 270.719347 
" clip-path="url(#pa71b8cab30)" style="fill: none; stroke: #ff7f0e; stroke-width: 1.5; stroke-linecap: square"/>
   </g>
   <g id="line2d_32">
    <path d="M 394.363636 270.65399 
L 399.539889 270.597978 
L 404.716141 270.500138 
L 409.892393 270.33386 
L 415.068646 270.05897 
L 420.244898 269.616989 
L 425.42115 268.926008 
L 430.597403 267.875909 
L 435.773655 266.325106 
L 440.949907 264.100343 
L 446.12616 261.001381 
L 451.302412 256.812288 
L 456.478664 251.320573 
L 461.654917 244.34429 
L 466.831169 235.76563 
L 472.007421 225.567597 
L 477.183673 213.868449 
L 482.359926 200.947252 
L 487.536178 187.253654 
L 492.71243 173.396206 
L 497.888683 160.106349 
L 503.064935 148.179265 
L 508.241187 138.397317 
L 513.41744 131.44596 
L 518.593692 127.834515 
L 523.769944 127.834515 
L 528.946197 131.44596 
L 534.122449 138.397317 
L 539.298701 148.179265 
L 544.474954 160.106349 
L 549.651206 173.396206 
L 554.827458 187.253654 
L 560.003711 200.947252 
L 565.179963 213.868449 
L 570.356215 225.567597 
L 575.532468 235.76563 
L 580.70872 244.34429 
L 585.884972 251.320573 
L 591.061224 256.812288 
L 596.237477 261.001381 
L 601.413729 264.100343 
L 606.589981 266.325106 
L 611.766234 267.875909 
L 616.942486 268.926008 
L 622.118738 269.616989 
L 627.294991 270.05897 
L 632.471243 270.33386 
L 637.647495 270.500138 
L 642.823748 270.597978 
L 648 270.65399 
" clip-path="url(#pa71b8cab30)" style="fill: none; stroke: #2ca02c; stroke-width: 1.5; stroke-linecap: square"/>
   </g>
   <g id="patch_18">
    <path d="M 394.363636 270.72 
L 394.363636 69.12 
" style="fill: none; stroke: #000000; stroke-width: 0.8; stroke-linejoin: miter; stroke-linecap: square"/>
   </g>
   <g id="patch_19">
    <path d="M 648 270.72 
L 648 69.12 
" style="fill: none; stroke: #000000; stroke-width: 0.8; stroke-linejoin: miter; stroke-linecap: square"/>
   </g>
   <g id="patch_20">
    <path d="M 394.363636 270.72 
L 648 270.72 
" style="fill: none; stroke: #000000; stroke-width: 0.8; stroke-linejoin: miter; stroke-linecap: square"/>
   </g>
   <g id="patch_21">
    <path d="M 394.363636 69.12 
L 648 69.12 
" style="fill: none; stroke: #000000; stroke-width: 0.8; stroke-linejoin: miter; stroke-linecap: square"/>
   </g>
   <g id="text_31">
    <!-- Histogram plus estimated density -->
    <g transform="translate(419.721818 63.12) scale(0.12 -0.12)">
     <defs>
      <path id="DejaVuSans-48" d="M 628 4666 
L 1259 4666 
L 1259 2753 
L 3553 2753 
L 3553 4666 
L 4184 4666 
L 4184 0 
L 3553 0 
L 3553 2222 
L 1259 2222 
L 1259 0 
L 628 0 
L 628 4666 
z
" transform="scale(0.015625)"/>
      <path id="DejaVuSans-67" d="M 2906 1791 
Q 2906 2416 2648 2759 
Q 2391 3103 1925 3103 
Q 1463 3103 1205 2759 
Q 947 2416 947 1791 
Q 947 1169 1205 825 
Q 1463 481 1925 481 
Q 2391 481 2648 825 
Q 2906 1169 2906 1791 
z
M 3481 434 
Q 3481 -459 3084 -895 
Q 2688 -1331 1869 -1331 
Q 1566 -1331 1297 -1286 
Q 1028 -1241 775 -1147 
L 775 -588 
Q 1028 -725 1275 -790 
Q 1522 -856 1778 -856 
Q 2344 -856 2625 -561 
Q 2906 -266 2906 331 
L 2906 616 
Q 2728 306 2450 153 
Q 2172 0 1784 0 
Q 1141 0 747 490 
Q 353 981 353 1791 
Q 353 2603 747 3093 
Q 1141 3584 1784 3584 
Q 2172 3584 2450 3431 
Q 2728 3278 2906 2969 
L 2906 3500 
L 3481 3500 
L 3481 434 
z
" transform="scale(0.015625)"/>
      <path id="DejaVuSans-6d" d="M 3328 2828 
Q 3544 3216 3844 3400 
Q 4144 3584 4550 3584 
Q 5097 3584 5394 3201 
Q 5691 2819 5691 2113 
L 5691 0 
L 5113 0 
L 5113 2094 
Q 5113 2597 4934 2840 
Q 4756 3084 4391 3084 
Q 3944 3084 3684 2787 
Q 3425 2491 3425 1978 
L 3425 0 
L 2847 0 
L 2847 2094 
Q 2847 2600 2669 2842 
Q 2491 3084 2119 3084 
Q 1678 3084 1418 2786 
Q 1159 2488 1159 1978 
L 1159 0 
L 581 0 
L 581 3500 
L 1159 3500 
L 1159 2956 
Q 1356 3278 1631 3431 
Q 1906 3584 2284 3584 
Q 2666 3584 2933 3390 
Q 3200 3197 3328 2828 
z
" transform="scale(0.015625)"/>
      <path id="DejaVuSans-70" d="M 1159 525 
L 1159 -1331 
L 581 -1331 
L 581 3500 
L 1159 3500 
L 1159 2969 
Q 1341 3281 1617 3432 
Q 1894 3584 2278 3584 
Q 2916 3584 3314 3078 
Q 3713 2572 3713 1747 
Q 3713 922 3314 415 
Q 2916 -91 2278 -91 
Q 1894 -91 1617 61 
Q 1341 213 1159 525 
z
M 3116 1747 
Q 3116 2381 2855 2742 
Q 2594 3103 2138 3103 
Q 1681 3103 1420 2742 
Q 1159 2381 1159 1747 
Q 1159 1113 1420 752 
Q 1681 391 2138 391 
Q 2594 391 2855 752 
Q 3116 1113 3116 1747 
z
" transform="scale(0.015625)"/>
      <path id="DejaVuSans-79" d="M 2059 -325 
Q 1816 -950 1584 -1140 
Q 1353 -1331 966 -1331 
L 506 -1331 
L 506 -850 
L 844 -850 
Q 1081 -850 1212 -737 
Q 1344 -625 1503 -206 
L 1606 56 
L 191 3500 
L 800 3500 
L 1894 763 
L 2988 3500 
L 3597 3500 
L 2059 -325 
z
" transform="scale(0.015625)"/>
     </defs>
     <use xlink:href="#DejaVuSans-48"/>
     <use xlink:href="#DejaVuSans-69" x="75.195312"/>
     <use xlink:href="#DejaVuSans-73" x="102.978516"/>
     <use xlink:href="#DejaVuSans-74" x="155.078125"/>
     <use xlink:href="#DejaVuSans-6f" x="194.287109"/>
     <use xlink:href="#DejaVuSans-67" x="255.46875"/>
     <use xlink:href="#DejaVuSans-72" x="318.945312"/>
     <use xlink:href="#DejaVuSans-61" x="360.058594"/>
     <use xlink:href="#DejaVuSans-6d" x="421.337891"/>
     <use xlink:href="#DejaVuSans-20" x="518.75"/>
     <use xlink:href="#DejaVuSans-70" x="550.537109"/>
     <use xlink:href="#DejaVuSans-6c" x="614.013672"/>
     <use xlink:href="#DejaVuSans-75" x="641.796875"/>
     <use xlink:href="#DejaVuSans-73" x="705.175781"/>
     <use xlink:href="#DejaVuSans-20" x="757.275391"/>
     <use xlink:href="#DejaVuSans-65" x="789.0625"/>
     <use xlink:href="#DejaVuSans-73" x="850.585938"/>
     <use xlink:href="#DejaVuSans-74" x="902.685547"/>
     <use xlink:href="#DejaVuSans-69" x="941.894531"/>
     <use xlink:href="#DejaVuSans-6d" x="969.677734"/>
     <use xlink:href="#DejaVuSans-61" x="1067.089844"/>
     <use xlink:href="#DejaVuSans-74" x="1128.369141"/>
     <use xlink:href="#DejaVuSans-65" x="1167.578125"/>
     <use xlink:href="#DejaVuSans-64" x="1229.101562"/>
     <use xlink:href="#DejaVuSans-20" x="1292.578125"/>
     <use xlink:href="#DejaVuSans-64" x="1324.365234"/>
     <use xlink:href="#DejaVuSans-65" x="1387.841797"/>
     <use xlink:href="#DejaVuSans-6e" x="1449.365234"/>
     <use xlink:href="#DejaVuSans-73" x="1512.744141"/>
     <use xlink:href="#DejaVuSans-69" x="1564.84375"/>
     <use xlink:href="#DejaVuSans-74" x="1592.626953"/>
     <use xlink:href="#DejaVuSans-79" x="1631.835938"/>
    </g>
   </g>
   <g id="legend_1">
    <g id="patch_22">
     <path d="M 577.8125 121.154375 
L 641 121.154375 
Q 643 121.154375 643 119.154375 
L 643 76.12 
Q 643 74.12 641 74.12 
L 577.8125 74.12 
Q 575.8125 74.12 575.8125 76.12 
L 575.8125 119.154375 
Q 575.8125 121.154375 577.8125 121.154375 
z
" style="fill: #ffffff; opacity: 0.8; stroke: #cccccc; stroke-linejoin: miter"/>
    </g>
    <g id="patch_23">
     <path d="M 579.8125 85.718437 
L 599.8125 85.718437 
L 599.8125 78.718437 
L 579.8125 78.718437 
z
" style="fill: #1f77b4; stroke: #ffffff; stroke-linejoin: miter"/>
    </g>
    <g id="text_32">
     <!-- Hist -->
     <g transform="translate(607.8125 85.718437) scale(0.1 -0.1)">
      <use xlink:href="#DejaVuSans-48"/>
      <use xlink:href="#DejaVuSans-69" x="75.195312"/>
      <use xlink:href="#DejaVuSans-73" x="102.978516"/>
      <use xlink:href="#DejaVuSans-74" x="155.078125"/>
     </g>
    </g>
    <g id="line2d_33">
     <path d="M 579.8125 96.896563 
L 589.8125 96.896563 
L 599.8125 96.896563 
" style="fill: none; stroke: #ff7f0e; stroke-width: 1.5; stroke-linecap: square"/>
    </g>
    <g id="text_33">
     <!-- KDE -->
     <g transform="translate(607.8125 100.396563) scale(0.1 -0.1)">
      <defs>
       <path id="DejaVuSans-4b" d="M 628 4666 
L 1259 4666 
L 1259 2694 
L 3353 4666 
L 4166 4666 
L 1850 2491 
L 4331 0 
L 3500 0 
L 1259 2247 
L 1259 0 
L 628 0 
L 628 4666 
z
" transform="scale(0.015625)"/>
       <path id="DejaVuSans-44" d="M 1259 4147 
L 1259 519 
L 2022 519 
Q 2988 519 3436 956 
Q 3884 1394 3884 2338 
Q 3884 3275 3436 3711 
Q 2988 4147 2022 4147 
L 1259 4147 
z
M 628 4666 
L 1925 4666 
Q 3281 4666 3915 4102 
Q 4550 3538 4550 2338 
Q 4550 1131 3912 565 
Q 3275 0 1925 0 
L 628 0 
L 628 4666 
z
" transform="scale(0.015625)"/>
       <path id="DejaVuSans-45" d="M 628 4666 
L 3578 4666 
L 3578 4134 
L 1259 4134 
L 1259 2753 
L 3481 2753 
L 3481 2222 
L 1259 2222 
L 1259 531 
L 3634 531 
L 3634 0 
L 628 0 
L 628 4666 
z
" transform="scale(0.015625)"/>
      </defs>
      <use xlink:href="#DejaVuSans-4b"/>
      <use xlink:href="#DejaVuSans-44" x="65.576172"/>
      <use xlink:href="#DejaVuSans-45" x="142.578125"/>
     </g>
    </g>
    <g id="line2d_34">
     <path d="M 579.8125 111.574687 
L 589.8125 111.574687 
L 599.8125 111.574687 
" style="fill: none; stroke: #2ca02c; stroke-width: 1.5; stroke-linecap: square"/>
    </g>
    <g id="text_34">
     <!-- N(0,1) -->
     <g transform="translate(607.8125 115.074687) scale(0.1 -0.1)">
      <defs>
       <path id="DejaVuSans-4e" d="M 628 4666 
L 1478 4666 
L 3547 763 
L 3547 4666 
L 4159 4666 
L 4159 0 
L 3309 0 
L 1241 3903 
L 1241 0 
L 628 0 
L 628 4666 
z
" transform="scale(0.015625)"/>
       <path id="DejaVuSans-28" d="M 1984 4856 
Q 1566 4138 1362 3434 
Q 1159 2731 1159 2009 
Q 1159 1288 1364 580 
Q 1569 -128 1984 -844 
L 1484 -844 
Q 1016 -109 783 600 
Q 550 1309 550 2009 
Q 550 2706 781 3412 
Q 1013 4119 1484 4856 
L 1984 4856 
z
" transform="scale(0.015625)"/>
       <path id="DejaVuSans-2c" d="M 750 794 
L 1409 794 
L 1409 256 
L 897 -744 
L 494 -744 
L 750 256 
L 750 794 
z
" transform="scale(0.015625)"/>
       <path id="DejaVuSans-29" d="M 513 4856 
L 1013 4856 
Q 1481 4119 1714 3412 
Q 1947 2706 1947 2009 
Q 1947 1309 1714 600 
Q 1481 -109 1013 -844 
L 513 -844 
Q 928 -128 1133 580 
Q 1338 1288 1338 2009 
Q 1338 2731 1133 3434 
Q 928 4138 513 4856 
z
" transform="scale(0.015625)"/>
      </defs>
      <use xlink:href="#DejaVuSans-4e"/>
      <use xlink:href="#DejaVuSans-28" x="74.804688"/>
      <use xlink:href="#DejaVuSans-30" x="113.818359"/>
      <use xlink:href="#DejaVuSans-2c" x="177.441406"/>
      <use xlink:href="#DejaVuSans-31" x="209.228516"/>
      <use xlink:href="#DejaVuSans-29" x="272.851562"/>
     </g>
    </g>
   </g>
  </g>
  <g id="axes_3">
   <g id="patch_24">
    <path d="M 90 512.64 
L 343.636364 512.64 
L 343.636364 311.04 
L 90 311.04 
z
" style="fill: #ffffff"/>
   </g>
   <g id="matplotlib.axis_5">
    <g id="xtick_16">
     <g id="line2d_35">
      <g>
       <use xlink:href="#m25cf6c212d" x="106.255147" y="512.64" style="stroke: #000000; stroke-width: 0.8"/>
      </g>
     </g>
     <g id="text_35">
      <!-- −2 -->
      <g transform="translate(98.884054 527.238438) scale(0.1 -0.1)">
       <use xlink:href="#DejaVuSans-2212"/>
       <use xlink:href="#DejaVuSans-32" x="83.789062"/>
      </g>
     </g>
    </g>
    <g id="xtick_17">
     <g id="line2d_36">
      <g>
       <use xlink:href="#m25cf6c212d" x="161.536665" y="512.64" style="stroke: #000000; stroke-width: 0.8"/>
      </g>
     </g>
     <g id="text_36">
      <!-- −1 -->
      <g transform="translate(154.165571 527.238438) scale(0.1 -0.1)">
       <use xlink:href="#DejaVuSans-2212"/>
       <use xlink:href="#DejaVuSans-31" x="83.789062"/>
      </g>
     </g>
    </g>
    <g id="xtick_18">
     <g id="line2d_37">
      <g>
       <use xlink:href="#m25cf6c212d" x="216.818182" y="512.64" style="stroke: #000000; stroke-width: 0.8"/>
      </g>
     </g>
     <g id="text_37">
      <!-- 0 -->
      <g transform="translate(213.636932 527.238438) scale(0.1 -0.1)">
       <use xlink:href="#DejaVuSans-30"/>
      </g>
     </g>
    </g>
    <g id="xtick_19">
     <g id="line2d_38">
      <g>
       <use xlink:href="#m25cf6c212d" x="272.099699" y="512.64" style="stroke: #000000; stroke-width: 0.8"/>
      </g>
     </g>
     <g id="text_38">
      <!-- 1 -->
      <g transform="translate(268.918449 527.238438) scale(0.1 -0.1)">
       <use xlink:href="#DejaVuSans-31"/>
      </g>
     </g>
    </g>
    <g id="xtick_20">
     <g id="line2d_39">
      <g>
       <use xlink:href="#m25cf6c212d" x="327.381216" y="512.64" style="stroke: #000000; stroke-width: 0.8"/>
      </g>
     </g>
     <g id="text_39">
      <!-- 2 -->
      <g transform="translate(324.199966 527.238438) scale(0.1 -0.1)">
       <use xlink:href="#DejaVuSans-32"/>
      </g>
     </g>
    </g>
    <g id="text_40">
     <!-- Theoretical Quantiles -->
     <g transform="translate(163.542401 540.916563) scale(0.1 -0.1)">
      <defs>
       <path id="DejaVuSans-54" d="M -19 4666 
L 3928 4666 
L 3928 4134 
L 2272 4134 
L 2272 0 
L 1638 0 
L 1638 4134 
L -19 4134 
L -19 4666 
z
" transform="scale(0.015625)"/>
       <path id="DejaVuSans-68" d="M 3513 2113 
L 3513 0 
L 2938 0 
L 2938 2094 
Q 2938 2591 2744 2837 
Q 2550 3084 2163 3084 
Q 1697 3084 1428 2787 
Q 1159 2491 1159 1978 
L 1159 0 
L 581 0 
L 581 4863 
L 1159 4863 
L 1159 2956 
Q 1366 3272 1645 3428 
Q 1925 3584 2291 3584 
Q 2894 3584 3203 3211 
Q 3513 2838 3513 2113 
z
" transform="scale(0.015625)"/>
       <path id="DejaVuSans-63" d="M 3122 3366 
L 3122 2828 
Q 2878 2963 2633 3030 
Q 2388 3097 2138 3097 
Q 1578 3097 1268 2742 
Q 959 2388 959 1747 
Q 959 1106 1268 751 
Q 1578 397 2138 397 
Q 2388 397 2633 464 
Q 2878 531 3122 666 
L 3122 134 
Q 2881 22 2623 -34 
Q 2366 -91 2075 -91 
Q 1284 -91 818 406 
Q 353 903 353 1747 
Q 353 2603 823 3093 
Q 1294 3584 2113 3584 
Q 2378 3584 2631 3529 
Q 2884 3475 3122 3366 
z
" transform="scale(0.015625)"/>
       <path id="DejaVuSans-51" d="M 2522 4238 
Q 1834 4238 1429 3725 
Q 1025 3213 1025 2328 
Q 1025 1447 1429 934 
Q 1834 422 2522 422 
Q 3209 422 3611 934 
Q 4013 1447 4013 2328 
Q 4013 3213 3611 3725 
Q 3209 4238 2522 4238 
z
M 3406 84 
L 4238 -825 
L 3475 -825 
L 2784 -78 
Q 2681 -84 2626 -87 
Q 2572 -91 2522 -91 
Q 1538 -91 948 567 
Q 359 1225 359 2328 
Q 359 3434 948 4092 
Q 1538 4750 2522 4750 
Q 3503 4750 4090 4092 
Q 4678 3434 4678 2328 
Q 4678 1516 4351 937 
Q 4025 359 3406 84 
z
" transform="scale(0.015625)"/>
      </defs>
      <use xlink:href="#DejaVuSans-54"/>
      <use xlink:href="#DejaVuSans-68" x="61.083984"/>
      <use xlink:href="#DejaVuSans-65" x="124.462891"/>
      <use xlink:href="#DejaVuSans-6f" x="185.986328"/>
      <use xlink:href="#DejaVuSans-72" x="247.167969"/>
      <use xlink:href="#DejaVuSans-65" x="286.03125"/>
      <use xlink:href="#DejaVuSans-74" x="347.554688"/>
      <use xlink:href="#DejaVuSans-69" x="386.763672"/>
      <use xlink:href="#DejaVuSans-63" x="414.546875"/>
      <use xlink:href="#DejaVuSans-61" x="469.527344"/>
      <use xlink:href="#DejaVuSans-6c" x="530.806641"/>
      <use xlink:href="#DejaVuSans-20" x="558.589844"/>
      <use xlink:href="#DejaVuSans-51" x="590.376953"/>
      <use xlink:href="#DejaVuSans-75" x="669.087891"/>
      <use xlink:href="#DejaVuSans-61" x="732.466797"/>
      <use xlink:href="#DejaVuSans-6e" x="793.746094"/>
      <use xlink:href="#DejaVuSans-74" x="857.125"/>
      <use xlink:href="#DejaVuSans-69" x="896.333984"/>
      <use xlink:href="#DejaVuSans-6c" x="924.117188"/>
      <use xlink:href="#DejaVuSans-65" x="951.900391"/>
      <use xlink:href="#DejaVuSans-73" x="1013.423828"/>
     </g>
    </g>
   </g>
   <g id="matplotlib.axis_6">
    <g id="ytick_15">
     <g id="line2d_40">
      <g>
       <use xlink:href="#md6d4e2d818" x="90" y="490.339423" style="stroke: #000000; stroke-width: 0.8"/>
      </g>
     </g>
     <g id="text_41">
      <!-- −1.5 -->
      <g transform="translate(58.717187 494.138642) scale(0.1 -0.1)">
       <use xlink:href="#DejaVuSans-2212"/>
       <use xlink:href="#DejaVuSans-31" x="83.789062"/>
       <use xlink:href="#DejaVuSans-2e" x="147.412109"/>
       <use xlink:href="#DejaVuSans-35" x="179.199219"/>
      </g>
     </g>
    </g>
    <g id="ytick_16">
     <g id="line2d_41">
      <g>
       <use xlink:href="#md6d4e2d818" x="90" y="467.645621" style="stroke: #000000; stroke-width: 0.8"/>
      </g>
     </g>
     <g id="text_42">
      <!-- −1.0 -->
      <g transform="translate(58.717187 471.44484) scale(0.1 -0.1)">
       <use xlink:href="#DejaVuSans-2212"/>
       <use xlink:href="#DejaVuSans-31" x="83.789062"/>
       <use xlink:href="#DejaVuSans-2e" x="147.412109"/>
       <use xlink:href="#DejaVuSans-30" x="179.199219"/>
      </g>
     </g>
    </g>
    <g id="ytick_17">
     <g id="line2d_42">
      <g>
       <use xlink:href="#md6d4e2d818" x="90" y="444.951819" style="stroke: #000000; stroke-width: 0.8"/>
      </g>
     </g>
     <g id="text_43">
      <!-- −0.5 -->
      <g transform="translate(58.717187 448.751038) scale(0.1 -0.1)">
       <use xlink:href="#DejaVuSans-2212"/>
       <use xlink:href="#DejaVuSans-30" x="83.789062"/>
       <use xlink:href="#DejaVuSans-2e" x="147.412109"/>
       <use xlink:href="#DejaVuSans-35" x="179.199219"/>
      </g>
     </g>
    </g>
    <g id="ytick_18">
     <g id="line2d_43">
      <g>
       <use xlink:href="#md6d4e2d818" x="90" y="422.258018" style="stroke: #000000; stroke-width: 0.8"/>
      </g>
     </g>
     <g id="text_44">
      <!-- 0.0 -->
      <g transform="translate(67.096875 426.057236) scale(0.1 -0.1)">
       <use xlink:href="#DejaVuSans-30"/>
       <use xlink:href="#DejaVuSans-2e" x="63.623047"/>
       <use xlink:href="#DejaVuSans-30" x="95.410156"/>
      </g>
     </g>
    </g>
    <g id="ytick_19">
     <g id="line2d_44">
      <g>
       <use xlink:href="#md6d4e2d818" x="90" y="399.564216" style="stroke: #000000; stroke-width: 0.8"/>
      </g>
     </g>
     <g id="text_45">
      <!-- 0.5 -->
      <g transform="translate(67.096875 403.363435) scale(0.1 -0.1)">
       <use xlink:href="#DejaVuSans-30"/>
       <use xlink:href="#DejaVuSans-2e" x="63.623047"/>
       <use xlink:href="#DejaVuSans-35" x="95.410156"/>
      </g>
     </g>
    </g>
    <g id="ytick_20">
     <g id="line2d_45">
      <g>
       <use xlink:href="#md6d4e2d818" x="90" y="376.870414" style="stroke: #000000; stroke-width: 0.8"/>
      </g>
     </g>
     <g id="text_46">
      <!-- 1.0 -->
      <g transform="translate(67.096875 380.669633) scale(0.1 -0.1)">
       <use xlink:href="#DejaVuSans-31"/>
       <use xlink:href="#DejaVuSans-2e" x="63.623047"/>
       <use xlink:href="#DejaVuSans-30" x="95.410156"/>
      </g>
     </g>
    </g>
    <g id="ytick_21">
     <g id="line2d_46">
      <g>
       <use xlink:href="#md6d4e2d818" x="90" y="354.176612" style="stroke: #000000; stroke-width: 0.8"/>
      </g>
     </g>
     <g id="text_47">
      <!-- 1.5 -->
      <g transform="translate(67.096875 357.975831) scale(0.1 -0.1)">
       <use xlink:href="#DejaVuSans-31"/>
       <use xlink:href="#DejaVuSans-2e" x="63.623047"/>
       <use xlink:href="#DejaVuSans-35" x="95.410156"/>
      </g>
     </g>
    </g>
    <g id="ytick_22">
     <g id="line2d_47">
      <g>
       <use xlink:href="#md6d4e2d818" x="90" y="331.48281" style="stroke: #000000; stroke-width: 0.8"/>
      </g>
     </g>
     <g id="text_48">
      <!-- 2.0 -->
      <g transform="translate(67.096875 335.282029) scale(0.1 -0.1)">
       <use xlink:href="#DejaVuSans-32"/>
       <use xlink:href="#DejaVuSans-2e" x="63.623047"/>
       <use xlink:href="#DejaVuSans-30" x="95.410156"/>
      </g>
     </g>
    </g>
    <g id="text_49">
     <!-- Sample Quantiles -->
     <g transform="translate(52.6375 455.934531) rotate(-90) scale(0.1 -0.1)">
      <use xlink:href="#DejaVuSans-53"/>
      <use xlink:href="#DejaVuSans-61" x="63.476562"/>
      <use xlink:href="#DejaVuSans-6d" x="124.755859"/>
      <use xlink:href="#DejaVuSans-70" x="222.167969"/>
      <use xlink:href="#DejaVuSans-6c" x="285.644531"/>
      <use xlink:href="#DejaVuSans-65" x="313.427734"/>
      <use xlink:href="#DejaVuSans-20" x="374.951172"/>
      <use xlink:href="#DejaVuSans-51" x="406.738281"/>
      <use xlink:href="#DejaVuSans-75" x="485.449219"/>
      <use xlink:href="#DejaVuSans-61" x="548.828125"/>
      <use xlink:href="#DejaVuSans-6e" x="610.107422"/>
      <use xlink:href="#DejaVuSans-74" x="673.486328"/>
      <use xlink:href="#DejaVuSans-69" x="712.695312"/>
      <use xlink:href="#DejaVuSans-6c" x="740.478516"/>
      <use xlink:href="#DejaVuSans-65" x="768.261719"/>
      <use xlink:href="#DejaVuSans-73" x="829.785156"/>
     </g>
    </g>
   </g>
   <g id="line2d_48">
    <defs>
     <path id="mf2ca7ac627" d="M 0 3 
C 0.795609 3 1.55874 2.683901 2.12132 2.12132 
C 2.683901 1.55874 3 0.795609 3 0 
C 3 -0.795609 2.683901 -1.55874 2.12132 -2.12132 
C 1.55874 -2.683901 0.795609 -3 0 -3 
C -0.795609 -3 -1.55874 -2.683901 -2.12132 -2.12132 
C -2.683901 -1.55874 -3 -0.795609 -3 0 
C -3 0.795609 -2.683901 1.55874 -2.12132 2.12132 
C -1.55874 2.683901 -0.795609 3 0 3 
z
" style="stroke: #1f77b4"/>
    </defs>
    <g clip-path="url(#p97b6362d98)">
     <use xlink:href="#mf2ca7ac627" x="94.877622" y="497.15853" style="fill: #1f77b4; stroke: #1f77b4"/>
     <use xlink:href="#mf2ca7ac627" x="110.649917" y="482.839418" style="fill: #1f77b4; stroke: #1f77b4"/>
     <use xlink:href="#mf2ca7ac627" x="120.732933" y="481.793689" style="fill: #1f77b4; stroke: #1f77b4"/>
     <use xlink:href="#mf2ca7ac627" x="128.365376" y="476.522454" style="fill: #1f77b4; stroke: #1f77b4"/>
     <use xlink:href="#mf2ca7ac627" x="134.608598" y="470.448221" style="fill: #1f77b4; stroke: #1f77b4"/>
     <use xlink:href="#mf2ca7ac627" x="139.950409" y="469.540578" style="fill: #1f77b4; stroke: #1f77b4"/>
     <use xlink:href="#mf2ca7ac627" x="144.657611" y="468.591091" style="fill: #1f77b4; stroke: #1f77b4"/>
     <use xlink:href="#mf2ca7ac627" x="148.892864" y="464.302825" style="fill: #1f77b4; stroke: #1f77b4"/>
     <use xlink:href="#mf2ca7ac627" x="152.763061" y="464.015863" style="fill: #1f77b4; stroke: #1f77b4"/>
     <use xlink:href="#mf2ca7ac627" x="156.342423" y="463.53349" style="fill: #1f77b4; stroke: #1f77b4"/>
     <use xlink:href="#mf2ca7ac627" x="159.684721" y="457.987278" style="fill: #1f77b4; stroke: #1f77b4"/>
     <use xlink:href="#mf2ca7ac627" x="162.830241" y="456.58721" style="fill: #1f77b4; stroke: #1f77b4"/>
     <use xlink:href="#mf2ca7ac627" x="165.810013" y="452.059776" style="fill: #1f77b4; stroke: #1f77b4"/>
     <use xlink:href="#mf2ca7ac627" x="168.648487" y="451.979149" style="fill: #1f77b4; stroke: #1f77b4"/>
     <use xlink:href="#mf2ca7ac627" x="171.365313" y="451.15772" style="fill: #1f77b4; stroke: #1f77b4"/>
     <use xlink:href="#mf2ca7ac627" x="173.97655" y="451.108453" style="fill: #1f77b4; stroke: #1f77b4"/>
     <use xlink:href="#mf2ca7ac627" x="176.495518" y="449.535132" style="fill: #1f77b4; stroke: #1f77b4"/>
     <use xlink:href="#mf2ca7ac627" x="178.933412" y="441.267448" style="fill: #1f77b4; stroke: #1f77b4"/>
     <use xlink:href="#mf2ca7ac627" x="181.299752" y="441.22556" style="fill: #1f77b4; stroke: #1f77b4"/>
     <use xlink:href="#mf2ca7ac627" x="183.602723" y="440.793527" style="fill: #1f77b4; stroke: #1f77b4"/>
     <use xlink:href="#mf2ca7ac627" x="185.84943" y="437.041494" style="fill: #1f77b4; stroke: #1f77b4"/>
     <use xlink:href="#mf2ca7ac627" x="188.046104" y="433.386764" style="fill: #1f77b4; stroke: #1f77b4"/>
     <use xlink:href="#mf2ca7ac627" x="190.198249" y="432.81725" style="fill: #1f77b4; stroke: #1f77b4"/>
     <use xlink:href="#mf2ca7ac627" x="192.310776" y="432.81133" style="fill: #1f77b4; stroke: #1f77b4"/>
     <use xlink:href="#mf2ca7ac627" x="194.388098" y="432.092692" style="fill: #1f77b4; stroke: #1f77b4"/>
     <use xlink:href="#mf2ca7ac627" x="196.434212" y="431.576947" style="fill: #1f77b4; stroke: #1f77b4"/>
     <use xlink:href="#mf2ca7ac627" x="198.452767" y="431.178338" style="fill: #1f77b4; stroke: #1f77b4"/>
     <use xlink:href="#mf2ca7ac627" x="200.447122" y="429.739345" style="fill: #1f77b4; stroke: #1f77b4"/>
     <use xlink:href="#mf2ca7ac627" x="202.420388" y="426.302967" style="fill: #1f77b4; stroke: #1f77b4"/>
     <use xlink:href="#mf2ca7ac627" x="204.375473" y="424.388952" style="fill: #1f77b4; stroke: #1f77b4"/>
     <use xlink:href="#mf2ca7ac627" x="206.315112" y="424.236772" style="fill: #1f77b4; stroke: #1f77b4"/>
     <use xlink:href="#mf2ca7ac627" x="208.241904" y="423.058577" style="fill: #1f77b4; stroke: #1f77b4"/>
     <use xlink:href="#mf2ca7ac627" x="210.15833" y="421.235068" style="fill: #1f77b4; stroke: #1f77b4"/>
     <use xlink:href="#mf2ca7ac627" x="212.066783" y="418.051568" style="fill: #1f77b4; stroke: #1f77b4"/>
     <use xlink:href="#mf2ca7ac627" x="213.969589" y="416.854987" style="fill: #1f77b4; stroke: #1f77b4"/>
     <use xlink:href="#mf2ca7ac627" x="215.869024" y="415.93798" style="fill: #1f77b4; stroke: #1f77b4"/>
     <use xlink:href="#mf2ca7ac627" x="217.76734" y="415.900787" style="fill: #1f77b4; stroke: #1f77b4"/>
     <use xlink:href="#mf2ca7ac627" x="219.666775" y="414.631575" style="fill: #1f77b4; stroke: #1f77b4"/>
     <use xlink:href="#mf2ca7ac627" x="221.569581" y="414.565845" style="fill: #1f77b4; stroke: #1f77b4"/>
     <use xlink:href="#mf2ca7ac627" x="223.478034" y="412.946024" style="fill: #1f77b4; stroke: #1f77b4"/>
     <use xlink:href="#mf2ca7ac627" x="225.39446" y="410.498751" style="fill: #1f77b4; stroke: #1f77b4"/>
     <use xlink:href="#mf2ca7ac627" x="227.321251" y="410.014505" style="fill: #1f77b4; stroke: #1f77b4"/>
     <use xlink:href="#mf2ca7ac627" x="229.260891" y="408.918486" style="fill: #1f77b4; stroke: #1f77b4"/>
     <use xlink:href="#mf2ca7ac627" x="231.215976" y="408.538864" style="fill: #1f77b4; stroke: #1f77b4"/>
     <use xlink:href="#mf2ca7ac627" x="233.189242" y="405.283238" style="fill: #1f77b4; stroke: #1f77b4"/>
     <use xlink:href="#mf2ca7ac627" x="235.183596" y="403.328907" style="fill: #1f77b4; stroke: #1f77b4"/>
     <use xlink:href="#mf2ca7ac627" x="237.202152" y="401.984551" style="fill: #1f77b4; stroke: #1f77b4"/>
     <use xlink:href="#mf2ca7ac627" x="239.248266" y="399.444016" style="fill: #1f77b4; stroke: #1f77b4"/>
     <use xlink:href="#mf2ca7ac627" x="241.325587" y="398.117196" style="fill: #1f77b4; stroke: #1f77b4"/>
     <use xlink:href="#mf2ca7ac627" x="243.438115" y="394.93947" style="fill: #1f77b4; stroke: #1f77b4"/>
     <use xlink:href="#mf2ca7ac627" x="245.59026" y="394.703451" style="fill: #1f77b4; stroke: #1f77b4"/>
     <use xlink:href="#mf2ca7ac627" x="247.786933" y="394.5283" style="fill: #1f77b4; stroke: #1f77b4"/>
     <use xlink:href="#mf2ca7ac627" x="250.033641" y="392.773727" style="fill: #1f77b4; stroke: #1f77b4"/>
     <use xlink:href="#mf2ca7ac627" x="252.336611" y="392.516271" style="fill: #1f77b4; stroke: #1f77b4"/>
     <use xlink:href="#mf2ca7ac627" x="254.702951" y="387.779604" style="fill: #1f77b4; stroke: #1f77b4"/>
     <use xlink:href="#mf2ca7ac627" x="257.140845" y="386.612237" style="fill: #1f77b4; stroke: #1f77b4"/>
     <use xlink:href="#mf2ca7ac627" x="259.659814" y="383.825408" style="fill: #1f77b4; stroke: #1f77b4"/>
     <use xlink:href="#mf2ca7ac627" x="262.271051" y="383.461936" style="fill: #1f77b4; stroke: #1f77b4"/>
     <use xlink:href="#mf2ca7ac627" x="264.987877" y="382.815868" style="fill: #1f77b4; stroke: #1f77b4"/>
     <use xlink:href="#mf2ca7ac627" x="267.826351" y="382.529223" style="fill: #1f77b4; stroke: #1f77b4"/>
     <use xlink:href="#mf2ca7ac627" x="270.806122" y="379.373398" style="fill: #1f77b4; stroke: #1f77b4"/>
     <use xlink:href="#mf2ca7ac627" x="273.951643" y="378.045377" style="fill: #1f77b4; stroke: #1f77b4"/>
     <use xlink:href="#mf2ca7ac627" x="277.29394" y="376.218273" style="fill: #1f77b4; stroke: #1f77b4"/>
     <use xlink:href="#mf2ca7ac627" x="280.873303" y="368.608445" style="fill: #1f77b4; stroke: #1f77b4"/>
     <use xlink:href="#mf2ca7ac627" x="284.743499" y="348.515653" style="fill: #1f77b4; stroke: #1f77b4"/>
     <use xlink:href="#mf2ca7ac627" x="288.978753" y="347.986583" style="fill: #1f77b4; stroke: #1f77b4"/>
     <use xlink:href="#mf2ca7ac627" x="293.685954" y="345.327971" style="fill: #1f77b4; stroke: #1f77b4"/>
     <use xlink:href="#mf2ca7ac627" x="299.027766" y="336.168253" style="fill: #1f77b4; stroke: #1f77b4"/>
     <use xlink:href="#mf2ca7ac627" x="305.270987" y="333.763544" style="fill: #1f77b4; stroke: #1f77b4"/>
     <use xlink:href="#mf2ca7ac627" x="312.903431" y="328.378995" style="fill: #1f77b4; stroke: #1f77b4"/>
     <use xlink:href="#mf2ca7ac627" x="322.986446" y="321.592925" style="fill: #1f77b4; stroke: #1f77b4"/>
     <use xlink:href="#mf2ca7ac627" x="338.758741" y="320.203636" style="fill: #1f77b4; stroke: #1f77b4"/>
    </g>
   </g>
   <g id="line2d_49">
    <path d="M 94.877622 503.476364 
L 110.649917 491.93905 
L 120.732933 484.563401 
L 128.365376 478.980327 
L 134.608598 474.413458 
L 139.950409 470.505964 
L 144.657611 467.062682 
L 148.892864 463.964626 
L 152.763061 461.133607 
L 156.342423 458.51533 
L 159.684721 456.070465 
L 162.830241 453.769541 
L 165.810013 451.589861 
L 168.648487 449.513539 
L 171.365313 447.526201 
L 173.97655 445.616101 
L 176.495518 443.773495 
L 178.933412 441.990194 
L 181.299752 440.259235 
L 183.602723 438.574629 
L 185.84943 436.93118 
L 188.046104 435.32433 
L 190.198249 433.750052 
L 192.310776 432.204755 
L 194.388098 430.685209 
L 196.434212 429.188493 
L 198.452767 427.711935 
L 200.447122 426.25308 
L 202.420388 424.809651 
L 204.375473 423.379521 
L 206.315112 421.960689 
L 208.241904 420.551256 
L 210.15833 419.149405 
L 212.066783 417.753386 
L 213.969589 416.361498 
L 215.869024 414.972076 
L 217.76734 413.583473 
L 219.666775 412.19405 
L 221.569581 410.802162 
L 223.478034 409.406143 
L 225.39446 408.004292 
L 227.321251 406.594859 
L 229.260891 405.176027 
L 231.215976 403.745898 
L 233.189242 402.302469 
L 235.183596 400.843613 
L 237.202152 399.367055 
L 239.248266 397.870339 
L 241.325587 396.350794 
L 243.438115 394.805496 
L 245.59026 393.231218 
L 247.786933 391.624369 
L 250.033641 389.980919 
L 252.336611 388.296314 
L 254.702951 386.565354 
L 257.140845 384.782053 
L 259.659814 382.939447 
L 262.271051 381.029347 
L 264.987877 379.042009 
L 267.826351 376.965687 
L 270.806122 374.786007 
L 273.951643 372.485083 
L 277.29394 370.040218 
L 280.873303 367.421942 
L 284.743499 364.590922 
L 288.978753 361.492867 
L 293.685954 358.049585 
L 299.027766 354.14209 
L 305.270987 349.575221 
L 312.903431 343.992147 
L 322.986446 336.616498 
L 338.758741 325.079185 
" clip-path="url(#p97b6362d98)" style="fill: none; stroke: #ff0000; stroke-width: 1.5; stroke-linecap: square"/>
   </g>
   <g id="patch_25">
    <path d="M 90 512.64 
L 90 311.04 
" style="fill: none; stroke: #000000; stroke-width: 0.8; stroke-linejoin: miter; stroke-linecap: square"/>
   </g>
   <g id="patch_26">
    <path d="M 343.636364 512.64 
L 343.636364 311.04 
" style="fill: none; stroke: #000000; stroke-width: 0.8; stroke-linejoin: miter; stroke-linecap: square"/>
   </g>
   <g id="patch_27">
    <path d="M 90 512.64 
L 343.636364 512.64 
" style="fill: none; stroke: #000000; stroke-width: 0.8; stroke-linejoin: miter; stroke-linecap: square"/>
   </g>
   <g id="patch_28">
    <path d="M 90 311.04 
L 343.636364 311.04 
" style="fill: none; stroke: #000000; stroke-width: 0.8; stroke-linejoin: miter; stroke-linecap: square"/>
   </g>
   <g id="text_50">
    <!-- Normal Q-Q -->
    <g transform="translate(181.208182 305.04) scale(0.12 -0.12)">
     <defs>
      <path id="DejaVuSans-2d" d="M 313 2009 
L 1997 2009 
L 1997 1497 
L 313 1497 
L 313 2009 
z
" transform="scale(0.015625)"/>
     </defs>
     <use xlink:href="#DejaVuSans-4e"/>
     <use xlink:href="#DejaVuSans-6f" x="74.804688"/>
     <use xlink:href="#DejaVuSans-72" x="135.986328"/>
     <use xlink:href="#DejaVuSans-6d" x="175.349609"/>
     <use xlink:href="#DejaVuSans-61" x="272.761719"/>
     <use xlink:href="#DejaVuSans-6c" x="334.041016"/>
     <use xlink:href="#DejaVuSans-20" x="361.824219"/>
     <use xlink:href="#DejaVuSans-51" x="393.611328"/>
     <use xlink:href="#DejaVuSans-2d" x="475.072266"/>
     <use xlink:href="#DejaVuSans-51" x="514.78125"/>
    </g>
   </g>
  </g>
  <g id="axes_4">
   <g id="patch_29">
    <path d="M 394.363636 512.64 
L 648 512.64 
L 648 311.04 
L 394.363636 311.04 
z
" style="fill: #ffffff"/>
   </g>
   <g id="PolyCollection_1">
    <path d="M 416.872491 388.556816 
L 416.872491 435.123184 
L 449.812279 435.123184 
L 471.772137 435.123184 
L 493.731995 435.123184 
L 515.691854 435.123184 
L 537.651712 435.123184 
L 559.61157 435.123184 
L 581.571429 435.123184 
L 603.531287 435.123184 
L 636.471074 435.123184 
L 636.471074 388.556816 
L 636.471074 388.556816 
L 603.531287 388.556816 
L 581.571429 388.556816 
L 559.61157 388.556816 
L 537.651712 388.556816 
L 515.691854 388.556816 
L 493.731995 388.556816 
L 471.772137 388.556816 
L 449.812279 388.556816 
L 416.872491 388.556816 
z
" clip-path="url(#p91c6629071)" style="fill: #1f77b4; fill-opacity: 0.25"/>
   </g>
   <g id="matplotlib.axis_7">
    <g id="xtick_21">
     <g id="line2d_50">
      <g>
       <use xlink:href="#m25cf6c212d" x="405.892562" y="512.64" style="stroke: #000000; stroke-width: 0.8"/>
      </g>
     </g>
     <g id="text_51">
      <!-- 0 -->
      <g transform="translate(402.711312 527.238438) scale(0.1 -0.1)">
       <use xlink:href="#DejaVuSans-30"/>
      </g>
     </g>
    </g>
    <g id="xtick_22">
     <g id="line2d_51">
      <g>
       <use xlink:href="#m25cf6c212d" x="449.812279" y="512.64" style="stroke: #000000; stroke-width: 0.8"/>
      </g>
     </g>
     <g id="text_52">
      <!-- 2 -->
      <g transform="translate(446.631029 527.238438) scale(0.1 -0.1)">
       <use xlink:href="#DejaVuSans-32"/>
      </g>
     </g>
    </g>
    <g id="xtick_23">
     <g id="line2d_52">
      <g>
       <use xlink:href="#m25cf6c212d" x="493.731995" y="512.64" style="stroke: #000000; stroke-width: 0.8"/>
      </g>
     </g>
     <g id="text_53">
      <!-- 4 -->
      <g transform="translate(490.550745 527.238438) scale(0.1 -0.1)">
       <use xlink:href="#DejaVuSans-34"/>
      </g>
     </g>
    </g>
    <g id="xtick_24">
     <g id="line2d_53">
      <g>
       <use xlink:href="#m25cf6c212d" x="537.651712" y="512.64" style="stroke: #000000; stroke-width: 0.8"/>
      </g>
     </g>
     <g id="text_54">
      <!-- 6 -->
      <g transform="translate(534.470462 527.238438) scale(0.1 -0.1)">
       <use xlink:href="#DejaVuSans-36"/>
      </g>
     </g>
    </g>
    <g id="xtick_25">
     <g id="line2d_54">
      <g>
       <use xlink:href="#m25cf6c212d" x="581.571429" y="512.64" style="stroke: #000000; stroke-width: 0.8"/>
      </g>
     </g>
     <g id="text_55">
      <!-- 8 -->
      <g transform="translate(578.390179 527.238438) scale(0.1 -0.1)">
       <defs>
        <path id="DejaVuSans-38" d="M 2034 2216 
Q 1584 2216 1326 1975 
Q 1069 1734 1069 1313 
Q 1069 891 1326 650 
Q 1584 409 2034 409 
Q 2484 409 2743 651 
Q 3003 894 3003 1313 
Q 3003 1734 2745 1975 
Q 2488 2216 2034 2216 
z
M 1403 2484 
Q 997 2584 770 2862 
Q 544 3141 544 3541 
Q 544 4100 942 4425 
Q 1341 4750 2034 4750 
Q 2731 4750 3128 4425 
Q 3525 4100 3525 3541 
Q 3525 3141 3298 2862 
Q 3072 2584 2669 2484 
Q 3125 2378 3379 2068 
Q 3634 1759 3634 1313 
Q 3634 634 3220 271 
Q 2806 -91 2034 -91 
Q 1263 -91 848 271 
Q 434 634 434 1313 
Q 434 1759 690 2068 
Q 947 2378 1403 2484 
z
M 1172 3481 
Q 1172 3119 1398 2916 
Q 1625 2713 2034 2713 
Q 2441 2713 2670 2916 
Q 2900 3119 2900 3481 
Q 2900 3844 2670 4047 
Q 2441 4250 2034 4250 
Q 1625 4250 1398 4047 
Q 1172 3844 1172 3481 
z
" transform="scale(0.015625)"/>
       </defs>
       <use xlink:href="#DejaVuSans-38"/>
      </g>
     </g>
    </g>
    <g id="xtick_26">
     <g id="line2d_55">
      <g>
       <use xlink:href="#m25cf6c212d" x="625.491145" y="512.64" style="stroke: #000000; stroke-width: 0.8"/>
      </g>
     </g>
     <g id="text_56">
      <!-- 10 -->
      <g transform="translate(619.128645 527.238438) scale(0.1 -0.1)">
       <use xlink:href="#DejaVuSans-31"/>
       <use xlink:href="#DejaVuSans-30" x="63.623047"/>
      </g>
     </g>
    </g>
   </g>
   <g id="matplotlib.axis_8">
    <g id="ytick_23">
     <g id="line2d_56">
      <g>
       <use xlink:href="#md6d4e2d818" x="394.363636" y="512.64" style="stroke: #000000; stroke-width: 0.8"/>
      </g>
     </g>
     <g id="text_57">
      <!-- −1.00 -->
      <g transform="translate(356.718324 516.439219) scale(0.1 -0.1)">
       <use xlink:href="#DejaVuSans-2212"/>
       <use xlink:href="#DejaVuSans-31" x="83.789062"/>
       <use xlink:href="#DejaVuSans-2e" x="147.412109"/>
       <use xlink:href="#DejaVuSans-30" x="179.199219"/>
       <use xlink:href="#DejaVuSans-30" x="242.822266"/>
      </g>
     </g>
    </g>
    <g id="ytick_24">
     <g id="line2d_57">
      <g>
       <use xlink:href="#md6d4e2d818" x="394.363636" y="487.44" style="stroke: #000000; stroke-width: 0.8"/>
      </g>
     </g>
     <g id="text_58">
      <!-- −0.75 -->
      <g transform="translate(356.718324 491.239219) scale(0.1 -0.1)">
       <use xlink:href="#DejaVuSans-2212"/>
       <use xlink:href="#DejaVuSans-30" x="83.789062"/>
       <use xlink:href="#DejaVuSans-2e" x="147.412109"/>
       <use xlink:href="#DejaVuSans-37" x="179.199219"/>
       <use xlink:href="#DejaVuSans-35" x="242.822266"/>
      </g>
     </g>
    </g>
    <g id="ytick_25">
     <g id="line2d_58">
      <g>
       <use xlink:href="#md6d4e2d818" x="394.363636" y="462.24" style="stroke: #000000; stroke-width: 0.8"/>
      </g>
     </g>
     <g id="text_59">
      <!-- −0.50 -->
      <g transform="translate(356.718324 466.039219) scale(0.1 -0.1)">
       <use xlink:href="#DejaVuSans-2212"/>
       <use xlink:href="#DejaVuSans-30" x="83.789062"/>
       <use xlink:href="#DejaVuSans-2e" x="147.412109"/>
       <use xlink:href="#DejaVuSans-35" x="179.199219"/>
       <use xlink:href="#DejaVuSans-30" x="242.822266"/>
      </g>
     </g>
    </g>
    <g id="ytick_26">
     <g id="line2d_59">
      <g>
       <use xlink:href="#md6d4e2d818" x="394.363636" y="437.04" style="stroke: #000000; stroke-width: 0.8"/>
      </g>
     </g>
     <g id="text_60">
      <!-- −0.25 -->
      <g transform="translate(356.718324 440.839219) scale(0.1 -0.1)">
       <use xlink:href="#DejaVuSans-2212"/>
       <use xlink:href="#DejaVuSans-30" x="83.789062"/>
       <use xlink:href="#DejaVuSans-2e" x="147.412109"/>
       <use xlink:href="#DejaVuSans-32" x="179.199219"/>
       <use xlink:href="#DejaVuSans-35" x="242.822266"/>
      </g>
     </g>
    </g>
    <g id="ytick_27">
     <g id="line2d_60">
      <g>
       <use xlink:href="#md6d4e2d818" x="394.363636" y="411.84" style="stroke: #000000; stroke-width: 0.8"/>
      </g>
     </g>
     <g id="text_61">
      <!-- 0.00 -->
      <g transform="translate(365.098011 415.639219) scale(0.1 -0.1)">
       <use xlink:href="#DejaVuSans-30"/>
       <use xlink:href="#DejaVuSans-2e" x="63.623047"/>
       <use xlink:href="#DejaVuSans-30" x="95.410156"/>
       <use xlink:href="#DejaVuSans-30" x="159.033203"/>
      </g>
     </g>
    </g>
    <g id="ytick_28">
     <g id="line2d_61">
      <g>
       <use xlink:href="#md6d4e2d818" x="394.363636" y="386.64" style="stroke: #000000; stroke-width: 0.8"/>
      </g>
     </g>
     <g id="text_62">
      <!-- 0.25 -->
      <g transform="translate(365.098011 390.439219) scale(0.1 -0.1)">
       <use xlink:href="#DejaVuSans-30"/>
       <use xlink:href="#DejaVuSans-2e" x="63.623047"/>
       <use xlink:href="#DejaVuSans-32" x="95.410156"/>
       <use xlink:href="#DejaVuSans-35" x="159.033203"/>
      </g>
     </g>
    </g>
    <g id="ytick_29">
     <g id="line2d_62">
      <g>
       <use xlink:href="#md6d4e2d818" x="394.363636" y="361.44" style="stroke: #000000; stroke-width: 0.8"/>
      </g>
     </g>
     <g id="text_63">
      <!-- 0.50 -->
      <g transform="translate(365.098011 365.239219) scale(0.1 -0.1)">
       <use xlink:href="#DejaVuSans-30"/>
       <use xlink:href="#DejaVuSans-2e" x="63.623047"/>
       <use xlink:href="#DejaVuSans-35" x="95.410156"/>
       <use xlink:href="#DejaVuSans-30" x="159.033203"/>
      </g>
     </g>
    </g>
    <g id="ytick_30">
     <g id="line2d_63">
      <g>
       <use xlink:href="#md6d4e2d818" x="394.363636" y="336.24" style="stroke: #000000; stroke-width: 0.8"/>
      </g>
     </g>
     <g id="text_64">
      <!-- 0.75 -->
      <g transform="translate(365.098011 340.039219) scale(0.1 -0.1)">
       <use xlink:href="#DejaVuSans-30"/>
       <use xlink:href="#DejaVuSans-2e" x="63.623047"/>
       <use xlink:href="#DejaVuSans-37" x="95.410156"/>
       <use xlink:href="#DejaVuSans-35" x="159.033203"/>
      </g>
     </g>
    </g>
    <g id="ytick_31">
     <g id="line2d_64">
      <g>
       <use xlink:href="#md6d4e2d818" x="394.363636" y="311.04" style="stroke: #000000; stroke-width: 0.8"/>
      </g>
     </g>
     <g id="text_65">
      <!-- 1.00 -->
      <g transform="translate(365.098011 314.839219) scale(0.1 -0.1)">
       <use xlink:href="#DejaVuSans-31"/>
       <use xlink:href="#DejaVuSans-2e" x="63.623047"/>
       <use xlink:href="#DejaVuSans-30" x="95.410156"/>
       <use xlink:href="#DejaVuSans-30" x="159.033203"/>
      </g>
     </g>
    </g>
   </g>
   <g id="LineCollection_2">
    <path d="M 405.892562 411.84 
L 405.892562 311.04 
" clip-path="url(#p91c6629071)" style="fill: none; stroke: #1f77b4; stroke-width: 1.5"/>
    <path d="M 427.85242 411.84 
L 427.85242 413.762905 
" clip-path="url(#p91c6629071)" style="fill: none; stroke: #1f77b4; stroke-width: 1.5"/>
    <path d="M 449.812279 411.84 
L 449.812279 412.705392 
" clip-path="url(#p91c6629071)" style="fill: none; stroke: #1f77b4; stroke-width: 1.5"/>
    <path d="M 471.772137 411.84 
L 471.772137 420.979994 
" clip-path="url(#p91c6629071)" style="fill: none; stroke: #1f77b4; stroke-width: 1.5"/>
    <path d="M 493.731995 411.84 
L 493.731995 414.808605 
" clip-path="url(#p91c6629071)" style="fill: none; stroke: #1f77b4; stroke-width: 1.5"/>
    <path d="M 515.691854 411.84 
L 515.691854 418.588343 
" clip-path="url(#p91c6629071)" style="fill: none; stroke: #1f77b4; stroke-width: 1.5"/>
    <path d="M 537.651712 411.84 
L 537.651712 414.489248 
" clip-path="url(#p91c6629071)" style="fill: none; stroke: #1f77b4; stroke-width: 1.5"/>
    <path d="M 559.61157 411.84 
L 559.61157 408.402867 
" clip-path="url(#p91c6629071)" style="fill: none; stroke: #1f77b4; stroke-width: 1.5"/>
    <path d="M 581.571429 411.84 
L 581.571429 420.157579 
" clip-path="url(#p91c6629071)" style="fill: none; stroke: #1f77b4; stroke-width: 1.5"/>
    <path d="M 603.531287 411.84 
L 603.531287 402.316244 
" clip-path="url(#p91c6629071)" style="fill: none; stroke: #1f77b4; stroke-width: 1.5"/>
    <path d="M 625.491145 411.84 
L 625.491145 412.282779 
" clip-path="url(#p91c6629071)" style="fill: none; stroke: #1f77b4; stroke-width: 1.5"/>
   </g>
   <g id="line2d_65">
    <path d="M 394.363636 411.84 
L 648 411.84 
" clip-path="url(#p91c6629071)" style="fill: none; stroke: #1f77b4; stroke-width: 1.5; stroke-linecap: square"/>
   </g>
   <g id="line2d_66">
    <defs>
     <path id="m1947b2650d" d="M 0 2.5 
C 0.663008 2.5 1.29895 2.236584 1.767767 1.767767 
C 2.236584 1.29895 2.5 0.663008 2.5 0 
C 2.5 -0.663008 2.236584 -1.29895 1.767767 -1.767767 
C 1.29895 -2.236584 0.663008 -2.5 0 -2.5 
C -0.663008 -2.5 -1.29895 -2.236584 -1.767767 -1.767767 
C -2.236584 -1.29895 -2.5 -0.663008 -2.5 0 
C -2.5 0.663008 -2.236584 1.29895 -1.767767 1.767767 
C -1.29895 2.236584 -0.663008 2.5 0 2.5 
z
" style="stroke: #1f77b4"/>
    </defs>
    <g clip-path="url(#p91c6629071)">
     <use xlink:href="#m1947b2650d" x="405.892562" y="311.04" style="fill: #1f77b4; stroke: #1f77b4"/>
     <use xlink:href="#m1947b2650d" x="427.85242" y="413.762905" style="fill: #1f77b4; stroke: #1f77b4"/>
     <use xlink:href="#m1947b2650d" x="449.812279" y="412.705392" style="fill: #1f77b4; stroke: #1f77b4"/>
     <use xlink:href="#m1947b2650d" x="471.772137" y="420.979994" style="fill: #1f77b4; stroke: #1f77b4"/>
     <use xlink:href="#m1947b2650d" x="493.731995" y="414.808605" style="fill: #1f77b4; stroke: #1f77b4"/>
     <use xlink:href="#m1947b2650d" x="515.691854" y="418.588343" style="fill: #1f77b4; stroke: #1f77b4"/>
     <use xlink:href="#m1947b2650d" x="537.651712" y="414.489248" style="fill: #1f77b4; stroke: #1f77b4"/>
     <use xlink:href="#m1947b2650d" x="559.61157" y="408.402867" style="fill: #1f77b4; stroke: #1f77b4"/>
     <use xlink:href="#m1947b2650d" x="581.571429" y="420.157579" style="fill: #1f77b4; stroke: #1f77b4"/>
     <use xlink:href="#m1947b2650d" x="603.531287" y="402.316244" style="fill: #1f77b4; stroke: #1f77b4"/>
     <use xlink:href="#m1947b2650d" x="625.491145" y="412.282779" style="fill: #1f77b4; stroke: #1f77b4"/>
    </g>
   </g>
   <g id="patch_30">
    <path d="M 394.363636 512.64 
L 394.363636 311.04 
" style="fill: none; stroke: #000000; stroke-width: 0.8; stroke-linejoin: miter; stroke-linecap: square"/>
   </g>
   <g id="patch_31">
    <path d="M 648 512.64 
L 648 311.04 
" style="fill: none; stroke: #000000; stroke-width: 0.8; stroke-linejoin: miter; stroke-linecap: square"/>
   </g>
   <g id="patch_32">
    <path d="M 394.363636 512.64 
L 648 512.64 
" style="fill: none; stroke: #000000; stroke-width: 0.8; stroke-linejoin: miter; stroke-linecap: square"/>
   </g>
   <g id="patch_33">
    <path d="M 394.363636 311.04 
L 648 311.04 
" style="fill: none; stroke: #000000; stroke-width: 0.8; stroke-linejoin: miter; stroke-linecap: square"/>
   </g>
   <g id="text_66">
    <!-- Correlogram -->
    <g transform="translate(483.800881 305.04) scale(0.12 -0.12)">
     <defs>
      <path id="DejaVuSans-43" d="M 4122 4306 
L 4122 3641 
Q 3803 3938 3442 4084 
Q 3081 4231 2675 4231 
Q 1875 4231 1450 3742 
Q 1025 3253 1025 2328 
Q 1025 1406 1450 917 
Q 1875 428 2675 428 
Q 3081 428 3442 575 
Q 3803 722 4122 1019 
L 4122 359 
Q 3791 134 3420 21 
Q 3050 -91 2638 -91 
Q 1578 -91 968 557 
Q 359 1206 359 2328 
Q 359 3453 968 4101 
Q 1578 4750 2638 4750 
Q 3056 4750 3426 4639 
Q 3797 4528 4122 4306 
z
" transform="scale(0.015625)"/>
     </defs>
     <use xlink:href="#DejaVuSans-43"/>
     <use xlink:href="#DejaVuSans-6f" x="69.824219"/>
     <use xlink:href="#DejaVuSans-72" x="131.005859"/>
     <use xlink:href="#DejaVuSans-72" x="170.369141"/>
     <use xlink:href="#DejaVuSans-65" x="209.232422"/>
     <use xlink:href="#DejaVuSans-6c" x="270.755859"/>
     <use xlink:href="#DejaVuSans-6f" x="298.539062"/>
     <use xlink:href="#DejaVuSans-67" x="359.720703"/>
     <use xlink:href="#DejaVuSans-72" x="423.197266"/>
     <use xlink:href="#DejaVuSans-61" x="464.310547"/>
     <use xlink:href="#DejaVuSans-6d" x="525.589844"/>
    </g>
   </g>
  </g>
 </g>
 <defs>
  <clipPath id="pabca6eff49">
   <rect x="90" y="69.12" width="253.636364" height="201.6"/>
  </clipPath>
  <clipPath id="pa71b8cab30">
   <rect x="394.363636" y="69.12" width="253.636364" height="201.6"/>
  </clipPath>
  <clipPath id="p97b6362d98">
   <rect x="90" y="311.04" width="253.636364" height="201.6"/>
  </clipPath>
  <clipPath id="p91c6629071">
   <rect x="394.363636" y="311.04" width="253.636364" height="201.6"/>
  </clipPath>
 </defs>
</svg>
